<svg width="283" height="37" viewBox="0 0 283 37" fill="none" xmlns="http://www.w3.org/2000/svg">
<path d="M19.707 8.76953C18.2227 7.50651 16.7122 6.6276 15.1758 6.13281C15.0846 7.35677 15.0391 8.89974 15.0391 10.7617C15.0391 12.6237 15.2409 14.7721 15.6445 17.207L9.47266 19.9609C10.5143 21.0417 11.901 21.8555 13.6328 22.4023C14.5833 22.7018 15.6055 22.8516 16.6992 22.8516C17.806 22.8516 18.9388 22.7539 20.0977 22.5586L16.6992 29.707C12.9102 28.4701 9.91536 27.2721 7.71484 26.1133C5.51432 24.9414 3.86719 23.5677 2.77344 21.9922C1.69271 20.4167 1.04167 18.5156 0.820312 16.2891C0.677083 14.8958 0.605469 13.4701 0.605469 12.0117C0.605469 10.5404 0.63151 9.17969 0.683594 7.92969L16.7383 0.0195312L21.4258 3.41797L19.707 8.76953ZM9.70703 6.32812C7.55859 7.35677 6.48438 9.24479 6.48438 11.9922C6.48438 14.4792 7.09635 16.6602 8.32031 18.5352C9.15365 17.9883 9.66797 16.901 9.86328 15.2734C9.94141 14.6354 9.98047 13.6458 9.98047 12.3047C9.98047 10.9505 9.88932 8.95833 9.70703 6.32812ZM31.582 24.9414C29.3424 27.4154 27.8971 29.0039 27.2461 29.707C26.2826 28.9779 25.319 28.2487 24.3555 27.5195C23.4049 26.7773 22.4544 26.0417 21.5039 25.3125C22.3893 24.5443 22.9688 23.8346 23.2422 23.1836C23.5156 22.5326 23.6589 21.9141 23.6719 21.3281L23.7695 9.51172C23.7695 8.66536 23.7305 7.65625 23.6523 6.48438C23.5872 5.3125 23.3008 4.32292 22.793 3.51562L29.2383 0.0195312C28.8867 1.58203 28.6784 3.20312 28.6133 4.88281C28.5612 6.5625 28.5352 8.26823 28.5352 10V11.8164L32.3438 8.90625C35.9766 12.3568 37.793 16.276 37.793 20.6641C37.793 25.5339 35.8984 30.8789 32.1094 36.6992L29.1992 35.7812C32.1289 32.5651 33.5938 28.8867 33.5938 24.7461C33.5938 20.3711 31.901 16.7122 28.5156 13.7695L28.457 21.4648C28.457 22.4414 28.5482 22.9948 28.7305 23.125C28.9128 23.2552 29.8633 23.8607 31.582 24.9414ZM43.6328 23.6914L43.8672 27.1875C42.3568 27.5781 40.6315 28.3138 38.6914 29.3945C39.3034 26.2174 41.0417 22.3177 43.9062 17.6953C43.0078 16.1328 42.2135 14.8503 41.5234 13.8477C41.276 13.4961 40.9115 13.3073 40.4297 13.2812C39.9479 13.2422 39.4857 13.2227 39.043 13.2227C39.5508 12.5065 40.1628 11.7904 40.8789 11.0742C41.5951 10.3581 42.6107 9.63542 43.9258 8.90625C44.6159 10.3125 45.4622 11.9466 46.4648 13.8086C47.5977 12.2331 48.7956 10.599 50.0586 8.90625C51.7383 9.66146 53.2096 10.332 54.4727 10.918L51.9727 15.4102C51.0221 14.3945 50.0781 13.6914 49.1406 13.3008C48.4505 14.1862 47.8776 14.9349 47.4219 15.5469C48.8932 18.1641 50.3776 20.5794 51.875 22.793C52.5391 23.8086 53.431 24.3555 54.5508 24.4336C52.793 26.4128 51.1328 28.0664 49.5703 29.3945C48.8021 27.7799 48.0404 26.1458 47.2852 24.4922C46.543 22.8385 45.7487 21.1979 44.9023 19.5703C44.056 21.263 43.6328 22.6367 43.6328 23.6914ZM59.9609 23.6914L60.1953 27.1875C58.6849 27.5781 56.9596 28.3138 55.0195 29.3945C55.6315 26.2174 57.3698 22.3177 60.2344 17.6953C59.3359 16.1328 58.5417 14.8503 57.8516 13.8477C57.6042 13.4961 57.2396 13.3073 56.7578 13.2812C56.276 13.2422 55.8138 13.2227 55.3711 13.2227C55.8789 12.5065 56.4909 11.7904 57.207 11.0742C57.9232 10.3581 58.9388 9.63542 60.2539 8.90625C60.944 10.3125 61.7904 11.9466 62.793 13.8086C63.9258 12.2331 65.1237 10.599 66.3867 8.90625C68.0664 9.66146 69.5378 10.332 70.8008 10.918L68.3008 15.4102C67.3503 14.3945 66.4062 13.6914 65.4688 13.3008C64.7786 14.1862 64.2057 14.9349 63.75 15.5469C65.2214 18.1641 66.7057 20.5794 68.2031 22.793C68.8672 23.8086 69.7591 24.3555 70.8789 24.4336C69.1211 26.4128 67.4609 28.0664 65.8984 29.3945C65.1302 27.7799 64.3685 26.1458 63.6133 24.4922C62.8711 22.8385 62.0768 21.1979 61.2305 19.5703C60.3841 21.263 59.9609 22.6367 59.9609 23.6914ZM71.6797 25.7617L75.0781 22.207C73.8542 20.5664 72.9883 18.7109 72.4805 16.6406C74.043 14.0625 76.3542 11.4844 79.4141 8.90625C81.8229 9.57031 84.5833 10.1953 87.6953 10.7812L88.1641 10.6641L84.4922 14.4336L87.6953 22.4609C85.2734 24.2708 83.0469 26.582 81.0156 29.3945C78.4766 27.8971 75.3646 26.6862 71.6797 25.7617ZM82.0117 24.4141C83.3268 24.4141 83.9844 23.9453 83.9844 23.0078C83.9844 22.1875 83.0469 20.4688 81.1719 17.8516L76.4844 22.6758C78.5026 23.8346 80.3451 24.4141 82.0117 24.4141ZM78.9258 18.2031L82.7148 14.2969C80.4492 13.6849 78.9323 13.3789 78.1641 13.3789C77.3958 13.3789 76.9661 13.457 76.875 13.6133C76.7969 13.7565 76.7578 13.8932 76.7578 14.0234C76.7578 14.7656 77.4805 16.1589 78.9258 18.2031ZM93.8281 23.6914L94.0625 27.1875C92.5521 27.5781 90.8268 28.3138 88.8867 29.3945C89.4987 26.2174 91.237 22.3177 94.1016 17.6953C93.2031 16.1328 92.4089 14.8503 91.7188 13.8477C91.4714 13.4961 91.1068 13.3073 90.625 13.2812C90.1432 13.2422 89.681 13.2227 89.2383 13.2227C89.7461 12.5065 90.3581 11.7904 91.0742 11.0742C91.7904 10.3581 92.806 9.63542 94.1211 8.90625C94.8112 10.3125 95.6576 11.9466 96.6602 13.8086C97.793 12.2331 98.9909 10.599 100.254 8.90625C101.934 9.66146 103.405 10.332 104.668 10.918L102.168 15.4102C101.217 14.3945 100.273 13.6914 99.3359 13.3008C98.6458 14.1862 98.0729 14.9349 97.6172 15.5469C99.0885 18.1641 100.573 20.5794 102.07 22.793C102.734 23.8086 103.626 24.3555 104.746 24.4336C102.988 26.4128 101.328 28.0664 99.7656 29.3945C98.9974 27.7799 98.2357 26.1458 97.4805 24.4922C96.7383 22.8385 95.944 21.1979 95.0977 19.5703C94.2513 21.263 93.8281 22.6367 93.8281 23.6914ZM112.93 11.7578L115.215 8.90625L121.445 13.418L120.859 15.7227L120.605 22.0117C120.605 22.0508 120.605 22.0898 120.605 22.1289C120.605 22.7669 120.801 23.2943 121.191 23.7109C121.582 24.1146 122.025 24.4206 122.52 24.6289L118.613 29.3945C117.65 28.6393 116.908 27.9688 116.387 27.3828C115.879 26.7969 115.625 25.5924 115.625 23.7695C115.625 23.6393 115.625 23.5026 115.625 23.3594L115.762 16.1328C115.762 15.5859 114.928 14.6745 113.262 13.3984L112.48 14.6289L112.109 22.0117C112.109 22.0508 112.109 22.0898 112.109 22.1289C112.109 22.7669 112.305 23.2943 112.695 23.7109C113.086 24.1146 113.535 24.4206 114.043 24.6289L110.137 29.3945L106.016 26.0547C106.758 25.1562 107.129 24.2578 107.129 23.3594L107.285 14.4922C107.285 13.8672 106.803 13.2422 105.84 12.6172L108.789 8.90625L112.93 11.7578ZM123.77 12.6172L126.719 8.90625L131.094 10.957C130.938 11.4909 130.768 12.0117 130.586 12.5195C130.404 13.0273 130.312 13.5482 130.312 14.082L130.039 22.0117C130.039 22.0768 130.039 22.1354 130.039 22.1875C130.039 22.7995 130.234 23.3073 130.625 23.7109C131.016 24.1146 131.465 24.4206 131.973 24.6289L128.066 29.3945L123.926 26.0547C124.681 25.1562 125.059 24.2578 125.059 23.3594L125.195 14.4922C125.195 13.8672 124.72 13.2422 123.77 12.6172ZM124.355 8.73047L125.918 1.01562L131.719 3.33984L124.355 8.73047ZM133.105 15.1758L140.723 8.98438L149.355 13.0273C148.34 13.9128 147.826 14.9089 147.812 16.0156L147.734 22.4805C147.734 22.9232 147.962 23.4245 148.418 23.9844C148.887 24.5443 149.329 24.9935 149.746 25.332L145.801 29.3945L142.773 26.2891C142.044 26.875 141.309 27.4154 140.566 27.9102C139.824 28.3919 139.16 28.8997 138.574 29.4336C136.621 28.7044 134.798 27.5781 133.105 26.0547C133.587 25.4427 133.867 24.5508 133.945 23.3789L133.887 17.4805C133.887 17.4284 133.887 17.3763 133.887 17.3242C133.887 16.556 133.626 15.8398 133.105 15.1758ZM139.805 13.6719C139.049 14.8047 138.672 15.8138 138.672 16.6992V21.4844C138.672 22.4609 138.848 23.1576 139.199 23.5742C139.499 24.0039 139.772 24.388 140.02 24.7266C140.28 25.0651 140.69 25.3125 141.25 25.4688L142.852 24.3164V15.332L139.805 13.6719ZM158.281 11.7578L160.566 8.90625L166.797 13.418L166.211 15.7227L165.957 22.0117C165.957 22.0508 165.957 22.0898 165.957 22.1289C165.957 22.7669 166.152 23.2943 166.543 23.7109C166.934 24.1146 167.376 24.4206 167.871 24.6289L163.965 29.3945C163.001 28.6393 162.259 27.9688 161.738 27.3828C161.23 26.7969 160.977 25.5924 160.977 23.7695C160.977 23.6393 160.977 23.5026 160.977 23.3594L161.113 16.1328C161.113 15.5859 160.28 14.6745 158.613 13.3984L157.832 14.6289L157.461 22.0117C157.461 22.0508 157.461 22.0898 157.461 22.1289C157.461 22.7669 157.656 23.2943 158.047 23.7109C158.438 24.1146 158.887 24.4206 159.395 24.6289L155.488 29.3945L151.367 26.0547C152.109 25.1562 152.48 24.2578 152.48 23.3594L152.637 14.4922C152.637 13.8672 152.155 13.2422 151.191 12.6172L154.141 8.90625L158.281 11.7578ZM200.078 8.88672C202.865 11.1133 205.02 13.5026 206.543 16.0547C203.574 22.1094 199.017 26.556 192.871 29.3945C184.147 25.8789 179.785 20.5599 179.785 13.4375C179.785 12.9167 179.811 12.3893 179.863 11.8555C183.926 5.97005 188.431 2.02474 193.379 0.0195312C196.087 1.90755 199.792 3.45703 204.492 4.66797L200.078 8.88672ZM192.988 5.60547C192.871 6.92057 192.812 8.08594 192.812 9.10156C192.812 10.1172 192.826 10.9701 192.852 11.6602C193.568 10.9961 194.303 10.332 195.059 9.66797C195.814 9.00391 196.549 8.32682 197.266 7.63672C196.146 6.76432 194.72 6.08724 192.988 5.60547ZM192.891 12.6172C192.956 14.1927 193.079 15.7617 193.262 17.3242C191.908 17.5716 190.312 18.4635 188.477 20C189.544 20.9766 190.762 21.8685 192.129 22.6758C193.509 23.4831 194.798 23.8867 195.996 23.8867C196.335 23.8867 196.673 23.8607 197.012 23.8086C199.16 23.457 200.365 22.5 200.625 20.9375C200.69 20.5208 200.723 20.1172 200.723 19.7266C200.723 18.6328 200.469 17.6628 199.961 16.8164C199.453 15.957 198.62 15.1237 197.461 14.3164C196.302 13.4961 194.779 12.9297 192.891 12.6172ZM187.031 18.5742C187.37 17.832 187.565 16.9792 187.617 16.0156L187.793 9.21875C187.806 8.63281 187.611 7.8776 187.207 6.95312C186.999 7.13542 186.81 7.35026 186.641 7.59766C185.456 9.1862 184.863 10.9701 184.863 12.9492C184.863 15.0977 185.586 16.9727 187.031 18.5742ZM212.188 23.6914L212.422 27.1875C210.911 27.5781 209.186 28.3138 207.246 29.3945C207.858 26.2174 209.596 22.3177 212.461 17.6953C211.562 16.1328 210.768 14.8503 210.078 13.8477C209.831 13.4961 209.466 13.3073 208.984 13.2812C208.503 13.2422 208.04 13.2227 207.598 13.2227C208.105 12.5065 208.717 11.7904 209.434 11.0742C210.15 10.3581 211.165 9.63542 212.48 8.90625C213.171 10.3125 214.017 11.9466 215.02 13.8086C216.152 12.2331 217.35 10.599 218.613 8.90625C220.293 9.66146 221.764 10.332 223.027 10.918L220.527 15.4102C219.577 14.3945 218.633 13.6914 217.695 13.3008C217.005 14.1862 216.432 14.9349 215.977 15.5469C217.448 18.1641 218.932 20.5794 220.43 22.793C221.094 23.8086 221.986 24.3555 223.105 24.4336C221.348 26.4128 219.688 28.0664 218.125 29.3945C217.357 27.7799 216.595 26.1458 215.84 24.4922C215.098 22.8385 214.303 21.1979 213.457 19.5703C212.611 21.263 212.188 22.6367 212.188 23.6914ZM231.113 11.7578L233.652 9.17969C236.27 10.9896 238.04 12.8255 238.965 14.6875L235.84 18.8672C235.488 17.8385 235.007 16.9336 234.395 16.1523C233.796 15.3711 232.793 14.5703 231.387 13.75L230.742 14.6289L230.371 21.2891C230.332 21.9661 230.762 22.6693 231.66 23.3984C232.559 24.1276 233.255 24.5964 233.75 24.8047L230.508 29.3945L224.453 24.6875C225.182 23.8151 225.56 22.9167 225.586 21.9922L225.547 14.4922C225.508 13.8672 225.026 13.2422 224.102 12.6172L227.051 8.90625L231.113 11.7578ZM240.82 14.3555C243.854 12.3242 246.374 10.4818 248.379 8.82812C249.382 9.25781 250.391 10.026 251.406 11.1328C253.607 13.4896 254.909 15.9505 255.312 18.5156C255.365 18.8151 255.391 19.1016 255.391 19.375C255.391 20.2344 255.15 20.931 254.668 21.4648L248.184 29.7266L239.824 25.6055C240.71 23.7695 241.152 22.181 241.152 20.8398L241.113 16.2891C241.074 15.3516 240.977 14.707 240.82 14.3555ZM246.074 13.6719L246.016 21.9727C246.133 22.6107 246.582 23.112 247.363 23.4766C248.145 23.8281 248.659 24.0039 248.906 24.0039C249.167 24.0039 249.342 23.9909 249.434 23.9648C250.579 23.7044 251.152 22.9818 251.152 21.7969C251.152 21.5234 251.12 21.2174 251.055 20.8789C250.612 18.7305 249.967 17.1094 249.121 16.0156C248.288 14.9089 247.272 14.1276 246.074 13.6719ZM266.621 24.9414C264.382 27.4154 262.936 29.0039 262.285 29.707C261.322 28.9779 260.358 28.2487 259.395 27.5195C258.444 26.7773 257.493 26.0417 256.543 25.3125C257.428 24.5443 258.008 23.8346 258.281 23.1836C258.555 22.5326 258.698 21.9141 258.711 21.3281L258.809 9.51172C258.809 8.66536 258.77 7.65625 258.691 6.48438C258.626 5.3125 258.34 4.32292 257.832 3.51562L264.277 0.0195312C263.926 1.58203 263.717 3.20312 263.652 4.88281C263.6 6.5625 263.574 8.26823 263.574 10L263.496 21.4648C263.496 22.4414 263.587 22.9948 263.77 23.125C263.952 23.2552 264.902 23.8607 266.621 24.9414ZM273.965 9.98047C272.962 8.27474 271.641 6.47786 270 4.58984L275.176 1.875C279.863 7.59115 282.467 14.3359 282.988 22.1094C281.361 23.3333 279.98 24.4661 278.848 25.5078C277.728 26.5495 276.803 27.8451 276.074 29.3945C274.642 28.7565 273.21 28.112 271.777 27.4609C270.358 26.7969 269.049 25.918 267.852 24.8242C267.799 22.8581 267.76 20.8854 267.734 18.9062C267.708 16.9271 267.682 14.9479 267.656 12.9688C270.781 11.5365 272.884 10.5404 273.965 9.98047ZM277.969 24.4141C277.969 24.2839 277.969 24.1471 277.969 24.0039C277.969 19.6289 276.94 15.4688 274.883 11.5234C273.464 12.2005 272.617 13.4245 272.344 15.1953C272.253 15.8854 272.207 16.7643 272.207 17.832C272.207 18.8997 272.337 20.2799 272.598 21.9727C274.421 23.418 276.211 24.2318 277.969 24.4141Z" fill="#0B0B0B"/>
</svg>
