<svg width="36" height="31" viewBox="0 0 36 31" fill="none" xmlns="http://www.w3.org/2000/svg">
<path d="M23.375 30.6667L16.6666 23.9584L18.4583 22.1667L23.375 27.0834L33.5416 16.9167L35.3333 18.7084L23.375 30.6667ZM16.9166 12.0417L30.8333 3.16675H2.99998L16.9166 12.0417ZM16.9166 14.5417L2.83331 5.50008V24.3334H13.5L16 26.8334H2.83331C2.16665 26.8334 1.58331 26.5834 1.08331 26.0834C0.583313 25.5834 0.333313 25.0001 0.333313 24.3334V3.16675C0.333313 2.50008 0.583313 1.91675 1.08331 1.41675C1.58331 0.916748 2.16665 0.666748 2.83331 0.666748H31.0416C31.7083 0.666748 32.2916 0.916748 32.7916 1.41675C33.2916 1.91675 33.5416 2.50008 33.5416 3.16675V13.3334L31.0416 15.8334V5.50008L16.9166 14.5417Z" fill="#FF3F3F"/>
</svg>
