<svg width="234" height="37" viewBox="0 0 234 37" fill="none" xmlns="http://www.w3.org/2000/svg">
<path d="M24.72 3.32C24.72 5.048 24.256 6.36 23.328 7.256C22.4 8.152 21.056 8.6 19.296 8.6C17.6 8.6 15.696 8.168 13.584 7.304L11.952 16.664H20.544C20.544 18.2 20.128 19.368 19.296 20.168C18.464 20.936 17.296 21.32 15.792 21.32C14.896 21.32 14.032 21.208 13.2 20.984C12.368 20.728 11.712 20.472 11.232 20.216L9.456 29.96H14.496C16.512 29.96 17.936 29.784 18.768 29.432C18.96 29.72 19.12 30.088 19.248 30.536C19.376 30.984 19.44 31.416 19.44 31.832C19.44 33.048 18.928 33.88 17.904 34.328C16.88 34.776 15.568 35 13.968 35H0.48L6.48 3.32H24.72ZM34.788 30.104C34.788 29.176 34.436 28.392 33.732 27.752C33.06 27.08 31.924 26.2 30.324 25.112C28.564 23.96 27.268 22.872 26.436 21.848C25.604 20.824 25.188 19.576 25.188 18.104C25.188 16.44 25.684 14.968 26.676 13.688C27.7 12.376 29.076 11.368 30.804 10.664C32.564 9.928 34.516 9.56 36.66 9.56C38.74 9.56 40.42 9.928 41.7 10.664C43.012 11.368 43.668 12.536 43.668 14.168C43.668 15.48 43.236 16.504 42.372 17.24C41.54 17.976 40.436 18.344 39.06 18.344C38.132 18.344 37.46 18.168 37.044 17.816C37.492 16.632 37.716 15.592 37.716 14.696C37.716 13.832 37.492 13.176 37.044 12.728C36.628 12.248 36.036 12.008 35.268 12.008C34.244 12.008 33.396 12.36 32.724 13.064C32.084 13.736 31.764 14.52 31.764 15.416C31.764 16.344 32.1 17.144 32.772 17.816C33.476 18.488 34.644 19.368 36.276 20.456C38.004 21.608 39.284 22.68 40.116 23.672C40.948 24.664 41.364 25.928 41.364 27.464C41.364 29.096 40.868 30.568 39.876 31.88C38.916 33.16 37.572 34.168 35.844 34.904C34.148 35.64 32.244 36.008 30.132 36.008C27.892 36.008 25.94 35.608 24.276 34.808C22.644 33.976 21.828 32.744 21.828 31.112C21.828 29.896 22.292 28.968 23.22 28.328C24.148 27.656 25.252 27.32 26.532 27.32C27.588 27.32 28.452 27.544 29.124 27.992C28.676 29.048 28.452 29.96 28.452 30.728C28.452 31.592 28.676 32.28 29.124 32.792C29.572 33.272 30.228 33.512 31.092 33.512C32.148 33.512 33.028 33.192 33.732 32.552C34.436 31.88 34.788 31.064 34.788 30.104ZM56.8988 6.152C56.6748 7.304 56.3868 8.52 56.0348 9.8C55.7148 11.048 55.3788 12.104 55.0268 12.968C55.9228 11.784 57.0428 10.92 58.3868 10.376C59.7308 9.832 61.1868 9.56 62.7548 9.56C66.9468 9.56 69.0428 11.528 69.0428 15.464C69.0428 16.584 68.8988 17.864 68.6108 19.304C68.3548 20.744 67.9708 22.456 67.4587 24.44C67.0428 26.104 66.7388 27.416 66.5468 28.376C66.3548 29.336 66.2588 30.136 66.2588 30.776C66.2588 31.448 66.3868 31.976 66.6428 32.36C66.9308 32.744 67.4108 32.968 68.0828 33.032C67.7948 33.992 67.1868 34.712 66.2588 35.192C65.3628 35.704 64.3388 35.96 63.1868 35.96C61.8428 35.96 60.7868 35.608 60.0188 34.904C59.2508 34.168 58.8668 33.096 58.8668 31.688C58.8668 30.824 58.9788 29.832 59.2028 28.712C59.4268 27.592 59.8108 25.88 60.3548 23.576C61.2828 19.8 61.7468 17.288 61.7468 16.04C61.7468 15.176 61.5388 14.504 61.1228 14.024C60.7388 13.512 60.1468 13.256 59.3468 13.256C57.9068 13.256 56.7548 14.024 55.8907 15.56C55.0268 17.064 54.3868 18.888 53.9708 21.032L51.2348 35L43.7468 35.768L50.4668 1.4L57.9548 0.631999L56.8988 6.152ZM93.1526 28.904C92.9926 29.864 92.9126 30.536 92.9126 30.92C92.9126 31.528 93.0566 32.024 93.3446 32.408C93.6646 32.792 94.1286 33 94.7366 33.032C94.4806 33.992 93.8886 34.712 92.9606 35.192C92.0326 35.704 91.0246 35.96 89.9366 35.96C88.9446 35.96 88.0806 35.72 87.3446 35.24C86.6086 34.792 86.1286 34.12 85.9046 33.224C85.1686 34.12 84.1766 34.792 82.9286 35.24C81.7126 35.72 80.3846 35.96 78.9446 35.96C76.3526 35.96 74.4806 35.176 73.3286 33.608C72.1766 32.04 71.6006 29.752 71.6006 26.744C71.6006 23.672 72.1286 20.84 73.1846 18.248C74.2726 15.624 75.8886 13.528 78.0326 11.96C80.1766 10.36 82.7526 9.56 85.7606 9.56C87.4886 9.56 89.1046 9.88 90.6086 10.52L96.8006 9.752L93.1526 28.904ZM88.6886 13.592C88.2406 13.208 87.7126 12.92 87.1046 12.728C86.4966 12.536 85.9206 12.44 85.3766 12.44C83.8726 12.44 82.6886 13.208 81.8246 14.744C80.9606 16.248 80.2566 18.584 79.7126 21.752C79.1366 24.568 78.8486 26.968 78.8486 28.952C78.8486 30.2 79.0406 31.192 79.4246 31.928C79.8086 32.632 80.4966 32.984 81.4886 32.984C82.8646 32.984 83.9526 32.312 84.7526 30.968C85.5526 29.592 86.1126 27.976 86.4326 26.12L88.6886 13.592ZM101.862 35.768C101.638 26.456 101.222 19.8 100.614 15.8C100.39 14.328 100.134 13.272 99.8464 12.632C99.5904 11.96 99.1904 11.448 98.6464 11.096C99.7024 10.072 101.126 9.56 102.918 9.56C104.742 9.56 106.022 10.056 106.758 11.048C107.494 12.008 107.958 13.592 108.15 15.8C108.278 17.72 108.342 20.584 108.342 24.392C108.342 27.112 108.326 29.448 108.294 31.4C110.15 29.256 111.734 26.488 113.046 23.096C114.358 19.704 115.014 16.616 115.014 13.832C115.014 12.904 114.902 11.992 114.678 11.096C115.126 10.616 115.686 10.248 116.358 9.992C117.062 9.704 117.83 9.56 118.662 9.56C120.966 9.56 122.118 10.744 122.118 13.112C122.118 14.968 121.542 17.208 120.39 19.832C119.27 22.424 117.926 24.808 116.358 26.984C115.366 28.328 114.198 29.736 112.854 31.208C111.51 32.68 110.134 33.944 108.726 35L101.862 35.768ZM137.482 9.56C142.378 9.56 144.826 11.448 144.826 15.224C144.826 17.88 143.642 19.944 141.274 21.416C138.938 22.888 135.754 23.624 131.722 23.624H130.042C129.946 24.488 129.898 25.304 129.898 26.072C129.898 27.672 130.218 28.888 130.858 29.72C131.498 30.52 132.586 30.92 134.122 30.92C135.466 30.92 136.714 30.632 137.866 30.056C139.018 29.448 139.898 28.6 140.506 27.512C141.274 27.864 141.658 28.568 141.658 29.624C141.658 30.776 141.21 31.848 140.314 32.84C139.45 33.8 138.266 34.552 136.762 35.096C135.258 35.672 133.61 35.96 131.818 35.96C128.842 35.96 126.57 35.144 125.002 33.512C123.434 31.848 122.65 29.32 122.65 25.928C122.65 23.08 123.194 20.408 124.282 17.912C125.402 15.416 127.066 13.4 129.274 11.864C131.514 10.328 134.25 9.56 137.482 9.56ZM136.426 12.152C135.018 12.152 133.786 13 132.73 14.696C131.674 16.392 130.89 18.632 130.378 21.416C132.682 21.416 134.618 20.824 136.186 19.64C137.754 18.456 138.538 16.856 138.538 14.84C138.538 13.048 137.834 12.152 136.426 12.152ZM155.084 14.264C155.756 12.792 156.7 11.64 157.916 10.808C159.164 9.976 160.588 9.56 162.188 9.56C163.884 9.56 165.18 10.024 166.076 10.952C166.972 11.88 167.42 13.144 167.42 14.744C167.42 16.568 166.892 18.088 165.836 19.304C164.78 20.52 163.436 21.128 161.804 21.128C161.292 21.128 160.796 21.064 160.316 20.936C159.868 20.776 159.532 20.536 159.308 20.216C159.788 19.576 160.188 18.776 160.508 17.816C160.828 16.856 160.988 15.992 160.988 15.224C160.988 13.912 160.444 13.256 159.356 13.256C158.204 13.256 157.244 14.008 156.476 15.512C155.74 17.016 155.164 18.936 154.748 21.272L152.444 35L144.716 35.768L149.564 10.52L155.756 9.752L155.084 14.264ZM177.022 14.264C178.654 11.128 181.39 9.56 185.23 9.56C186.894 9.56 188.222 9.896 189.214 10.568C190.238 11.208 190.942 12.232 191.326 13.64C192.19 12.232 193.31 11.208 194.686 10.568C196.094 9.896 197.662 9.56 199.39 9.56C201.502 9.56 203.118 10.056 204.238 11.048C205.358 12.04 205.918 13.512 205.918 15.464C205.918 16.552 205.774 17.736 205.486 19.016C205.23 20.296 204.814 22.104 204.238 24.44C203.79 26.104 203.454 27.416 203.23 28.376C203.038 29.336 202.942 30.12 202.942 30.728C202.942 31.432 203.086 31.976 203.374 32.36C203.662 32.744 204.126 32.968 204.766 33.032C204.478 33.992 203.87 34.712 202.942 35.192C202.046 35.704 201.022 35.96 199.87 35.96C198.526 35.96 197.47 35.608 196.702 34.904C195.934 34.168 195.55 33.096 195.55 31.688C195.55 30.792 195.662 29.752 195.886 28.568C196.142 27.352 196.526 25.672 197.038 23.528C197.486 21.64 197.822 20.12 198.046 18.968C198.302 17.816 198.43 16.856 198.43 16.088C198.43 15.224 198.222 14.536 197.806 14.024C197.422 13.512 196.83 13.256 196.03 13.256C193.598 13.256 191.886 15.848 190.894 21.032L188.206 35L180.67 35.768L183.262 23.336C183.294 23.208 183.326 23.08 183.358 22.952C183.39 22.792 183.422 22.6 183.454 22.376C183.486 22.152 183.662 21.272 183.982 19.736C184.302 18.168 184.462 16.936 184.462 16.04C184.462 15.176 184.254 14.504 183.838 14.024C183.454 13.512 182.846 13.256 182.014 13.256C180.542 13.256 179.406 14.008 178.606 15.512C177.838 17.016 177.246 18.856 176.83 21.032L174.094 35L166.606 35.768L171.55 10.52L177.694 9.752L177.022 14.264ZM229.84 28.904C229.68 29.864 229.6 30.536 229.6 30.92C229.6 31.528 229.744 32.024 230.032 32.408C230.352 32.792 230.816 33 231.424 33.032C231.168 33.992 230.576 34.712 229.648 35.192C228.72 35.704 227.712 35.96 226.624 35.96C225.632 35.96 224.768 35.72 224.032 35.24C223.296 34.792 222.816 34.12 222.592 33.224C221.856 34.12 220.864 34.792 219.616 35.24C218.4 35.72 217.072 35.96 215.632 35.96C213.04 35.96 211.168 35.176 210.016 33.608C208.864 32.04 208.288 29.752 208.288 26.744C208.288 23.672 208.816 20.84 209.872 18.248C210.96 15.624 212.576 13.528 214.72 11.96C216.864 10.36 219.44 9.56 222.448 9.56C224.176 9.56 225.792 9.88 227.296 10.52L233.488 9.752L229.84 28.904ZM225.376 13.592C224.928 13.208 224.4 12.92 223.792 12.728C223.184 12.536 222.608 12.44 222.064 12.44C220.56 12.44 219.376 13.208 218.512 14.744C217.648 16.248 216.944 18.584 216.4 21.752C215.824 24.568 215.536 26.968 215.536 28.952C215.536 30.2 215.728 31.192 216.112 31.928C216.496 32.632 217.184 32.984 218.176 32.984C219.552 32.984 220.64 32.312 221.44 30.968C222.24 29.592 222.8 27.976 223.12 26.12L225.376 13.592Z" fill="black"/>
</svg>
