<svg width="153" height="44" viewBox="0 0 153 44" fill="none" xmlns="http://www.w3.org/2000/svg">
<path d="M1.304 43.192C1.048 43.192 0.813333 43.1067 0.6 42.936C0.386667 42.7653 0.28 42.552 0.28 42.296C0.28 41.9547 0.365333 41.6773 0.536 41.464C0.749333 41.2507 1.02667 41.1013 1.368 41.016C2.52 40.7173 3.30933 40.4187 3.736 40.12C4.20533 39.8213 4.44 39.3307 4.44 38.648V24.824C4.44 23.288 4.20533 22.264 3.736 21.752C3.30933 21.1973 2.62667 20.856 1.688 20.728C1.432 20.6853 1.24 20.5573 1.112 20.344C0.984 20.088 0.92 19.8107 0.92 19.512C0.92 18.8293 1.176 18.4453 1.688 18.36C3.992 17.8907 6.08267 17.272 7.96 16.504C9.83733 15.6933 11.2667 15.0747 12.248 14.648C13.016 14.3067 13.4853 14.136 13.656 14.136C14.2533 14.136 14.552 14.4347 14.552 15.032C14.5093 15.8427 14.4027 16.8027 14.232 17.912C14.104 18.9787 13.976 20.088 13.848 21.24C13.7627 22.392 13.72 23.5013 13.72 24.568V38.584C13.72 39.1387 13.9333 39.5867 14.36 39.928C14.7867 40.2693 15.5973 40.632 16.792 41.016C17.1333 41.144 17.4107 41.2933 17.624 41.464C17.8373 41.6347 17.944 41.8907 17.944 42.232C17.944 42.8293 17.624 43.128 16.984 43.128C16.1733 43.128 15.2773 43.1067 14.296 43.064C13.3573 43.0213 12.4187 42.9787 11.48 42.936C10.584 42.8933 9.752 42.872 8.984 42.872C8.25867 42.872 7.448 42.8933 6.552 42.936C5.69867 42.9787 4.824 43.0213 3.928 43.064C3.032 43.1493 2.15733 43.192 1.304 43.192ZM8.728 11.768C7.27733 11.768 6.01867 11.2347 4.952 10.168C3.88533 9.10133 3.352 7.84266 3.352 6.392C3.352 4.81333 3.88533 3.49067 4.952 2.424C6.01867 1.35733 7.27733 0.823997 8.728 0.823997C10.3067 0.823997 11.6293 1.35733 12.696 2.424C13.7627 3.49067 14.296 4.81333 14.296 6.392C14.296 7.84266 13.7627 9.10133 12.696 10.168C11.6293 11.2347 10.3067 11.768 8.728 11.768Z" fill="#7DFF94"/>
<path d="M43.2025 43.448C41.4958 43.448 39.7465 43.4053 37.9545 43.32C36.2052 43.2347 34.6265 43.1493 33.2185 43.064C31.8105 43.0213 30.8292 43 30.2745 43C29.4212 43 28.4185 43 27.2665 43C26.1572 43.0427 25.0052 43.0853 23.8105 43.128C22.6585 43.1707 21.6132 43.192 20.6745 43.192C20.4185 43.192 20.1625 43.1067 19.9065 42.936C19.6505 42.7653 19.5225 42.5307 19.5225 42.232C19.5225 41.848 19.6292 41.5493 19.8425 41.336C20.0558 41.08 20.3545 40.9093 20.7385 40.824C22.3598 40.4827 23.4692 40.056 24.0665 39.544C24.6638 39.032 24.9625 38.1147 24.9625 36.792V7.736C24.9625 6.37067 24.6852 5.41067 24.1305 4.856C23.5758 4.30133 22.4452 3.832 20.7385 3.448C20.3545 3.36267 20.0558 3.21333 19.8425 3C19.6292 2.744 19.5225 2.424 19.5225 2.04C19.5225 1.74133 19.6505 1.50667 19.9065 1.336C20.1625 1.16533 20.4185 1.08 20.6745 1.08C21.6132 1.08 22.6585 1.10133 23.8105 1.144C25.0052 1.18666 26.1572 1.25066 27.2665 1.336C28.4185 1.37866 29.4212 1.4 30.2745 1.4C30.9145 1.4 31.7892 1.37866 32.8985 1.336C34.0505 1.25066 35.2878 1.18666 36.6105 1.144C37.9758 1.05866 39.2985 0.994666 40.5785 0.952C41.8585 0.866665 42.9252 0.823997 43.7785 0.823997C46.7652 0.823997 49.6025 1.336 52.2905 2.36C54.9785 3.34133 57.3678 4.74933 59.4585 6.584C61.5492 8.41867 63.1918 10.616 64.3865 13.176C65.5812 15.6933 66.1785 18.488 66.1785 21.56C66.1785 24.376 65.6878 27.1067 64.7065 29.752C63.7252 32.3547 62.2532 34.68 60.2905 36.728C58.3705 38.776 55.9812 40.4187 53.1225 41.656C50.2638 42.8507 46.9572 43.448 43.2025 43.448ZM42.1785 39.928C44.9945 39.928 47.2985 39.2453 49.0905 37.88C50.9252 36.5147 52.2692 34.5947 53.1225 32.12C54.0185 29.6453 54.4665 26.744 54.4665 23.416C54.4665 20.6 54.1892 18.04 53.6345 15.736C53.1225 13.432 52.3332 11.448 51.2665 9.784C50.1998 8.12 48.8558 6.84 47.2345 5.944C45.6132 5.00533 43.7145 4.536 41.5385 4.536C40.2585 4.536 39.1918 4.57867 38.3385 4.664C37.5278 4.74933 36.9092 4.94133 36.4825 5.24C36.0558 5.496 35.8425 5.96533 35.8425 6.648V34.424C35.8425 35.7467 36.0558 36.8133 36.4825 37.624C36.9518 38.4347 37.6558 39.032 38.5945 39.416C39.5332 39.7573 40.7278 39.928 42.1785 39.928ZM76.198 43.896C74.9607 43.896 73.83 43.6187 72.806 43.064C71.782 42.552 70.9713 41.848 70.374 40.952C69.7767 40.0133 69.478 38.9893 69.478 37.88C69.478 36.3867 69.9473 35.128 70.886 34.104C71.8673 33.08 73.2753 32.1627 75.11 31.352L80.614 28.92C81.4673 28.536 82.0007 28.1947 82.214 27.896C82.4273 27.5547 82.534 26.9787 82.534 26.168L82.598 22.648C82.6407 21.4107 82.4487 20.472 82.022 19.832C81.5953 19.1493 80.934 18.808 80.038 18.808C79.526 18.808 78.9927 18.936 78.438 19.192C77.8833 19.4053 77.478 19.6613 77.222 19.96C77.094 20.1307 77.0087 20.3227 76.966 20.536C76.9233 20.7493 76.902 20.9627 76.902 21.176C76.902 21.432 76.9233 21.7733 76.966 22.2C77.0087 22.584 77.03 22.904 77.03 23.16C77.03 23.4587 76.6673 23.8213 75.942 24.248C75.2167 24.632 74.3847 24.9947 73.446 25.336C72.5073 25.6347 71.6967 25.784 71.014 25.784C70.6727 25.784 70.374 25.656 70.118 25.4C69.9047 25.1013 69.798 24.7387 69.798 24.312C69.798 23.6293 70.0327 22.968 70.502 22.328C70.9713 21.688 71.7607 20.92 72.87 20.024C74.022 19.0853 75.2807 18.2533 76.646 17.528C78.0113 16.8027 79.3553 16.2267 80.678 15.8C82.0007 15.3307 83.1313 15.096 84.07 15.096C86.502 15.096 88.4433 15.8853 89.894 17.464C91.3447 19 92.0273 21.0693 91.942 23.672L91.622 36.088C91.5793 37.0693 91.7287 37.9227 92.07 38.648C92.454 39.3307 92.9233 39.672 93.478 39.672C94.246 39.672 94.9287 39.3947 95.526 38.84C95.654 38.712 95.782 38.648 95.91 38.648C96.1233 38.648 96.294 38.7333 96.422 38.904C96.5927 39.032 96.678 39.2027 96.678 39.416C96.678 39.928 96.2513 40.6107 95.398 41.464C94.5873 42.2747 93.7127 42.872 92.774 43.256C91.8353 43.6827 90.854 43.896 89.83 43.896C87.3553 43.896 85.286 42.6587 83.622 40.184H83.494C82.086 41.5067 80.8273 42.4453 79.718 43C78.6087 43.5973 77.4353 43.896 76.198 43.896ZM80.166 39.48C80.55 39.48 80.87 39.416 81.126 39.288C81.382 39.16 81.6167 38.9467 81.83 38.648C81.958 38.4773 82.0433 38.264 82.086 38.008C82.1713 37.752 82.214 37.4747 82.214 37.176L82.406 32.248C82.406 31.864 82.342 31.6293 82.214 31.544C82.086 31.416 81.9367 31.352 81.766 31.352C81.6807 31.352 81.574 31.3733 81.446 31.416C81.3607 31.416 81.254 31.4587 81.126 31.544C80.102 32.0987 79.3127 32.6747 78.758 33.272C78.246 33.8267 77.99 34.8507 77.99 36.344C77.99 37.5813 78.2247 38.4133 78.694 38.84C79.206 39.2667 79.6967 39.48 80.166 39.48ZM98.935 43.192C98.6363 43.192 98.3377 43.1067 98.039 42.936C97.783 42.7653 97.655 42.5307 97.655 42.232C97.655 41.8907 97.783 41.6133 98.039 41.4C98.3377 41.1867 98.7003 41.016 99.127 40.888C100.108 40.5893 100.748 40.2907 101.047 39.992C101.346 39.6507 101.495 39.1387 101.495 38.456V23.544C101.495 22.6907 101.388 22.008 101.175 21.496C100.962 20.984 100.492 20.6213 99.767 20.408C99.5537 20.3227 99.3403 20.216 99.127 20.088C98.9563 19.9173 98.871 19.6187 98.871 19.192C98.871 18.552 99.1483 18.168 99.703 18.04C101.111 17.6987 102.668 17.272 104.375 16.76C106.124 16.2053 107.639 15.6293 108.919 15.032C109.132 14.904 109.41 14.7547 109.751 14.584C110.092 14.4133 110.348 14.328 110.519 14.328C110.946 14.328 111.159 14.584 111.159 15.096C111.159 15.3093 111.138 15.7573 111.095 16.44C111.095 17.1227 111.074 17.8267 111.031 18.552C110.988 19.2347 110.967 19.7893 110.967 20.216C110.967 20.6427 111.052 20.856 111.223 20.856C111.863 19.96 112.61 19.064 113.463 18.168C114.359 17.272 115.319 16.5253 116.343 15.928C117.41 15.3307 118.476 15.032 119.543 15.032C121.122 15.032 122.231 15.3307 122.871 15.928C123.511 16.5253 123.831 17.2933 123.831 18.232C123.831 18.9147 123.639 19.6827 123.255 20.536C122.871 21.3467 122.38 22.0507 121.783 22.648C121.186 23.2453 120.546 23.544 119.863 23.544C119.436 23.544 118.988 23.4373 118.519 23.224C118.092 23.0107 117.644 22.7973 117.175 22.584C116.748 22.3707 116.322 22.1787 115.895 22.008C115.468 21.7947 115.084 21.688 114.743 21.688C113.634 21.688 112.695 22.1147 111.927 22.968C111.159 23.7787 110.775 25.4213 110.775 27.896V37.752C110.775 38.6907 111.031 39.3733 111.543 39.8C112.055 40.2267 112.908 40.6107 114.103 40.952C114.572 41.08 114.914 41.2507 115.127 41.464C115.383 41.6347 115.511 41.8907 115.511 42.232C115.511 42.872 115.17 43.192 114.487 43.192C113.207 43.192 111.799 43.128 110.263 43C108.727 42.9147 107.404 42.872 106.295 42.872C105.57 42.872 104.802 42.8933 103.991 42.936C103.18 42.9787 102.348 43.0213 101.495 43.064C100.642 43.1493 99.7883 43.192 98.935 43.192ZM132.448 43.896C131.211 43.896 130.08 43.6187 129.056 43.064C128.032 42.552 127.221 41.848 126.624 40.952C126.027 40.0133 125.728 38.9893 125.728 37.88C125.728 36.3867 126.197 35.128 127.136 34.104C128.117 33.08 129.525 32.1627 131.36 31.352L136.864 28.92C137.717 28.536 138.251 28.1947 138.464 27.896C138.677 27.5547 138.784 26.9787 138.784 26.168L138.848 22.648C138.891 21.4107 138.699 20.472 138.272 19.832C137.845 19.1493 137.184 18.808 136.288 18.808C135.776 18.808 135.243 18.936 134.688 19.192C134.133 19.4053 133.728 19.6613 133.472 19.96C133.344 20.1307 133.259 20.3227 133.216 20.536C133.173 20.7493 133.152 20.9627 133.152 21.176C133.152 21.432 133.173 21.7733 133.216 22.2C133.259 22.584 133.28 22.904 133.28 23.16C133.28 23.4587 132.917 23.8213 132.192 24.248C131.467 24.632 130.635 24.9947 129.696 25.336C128.757 25.6347 127.947 25.784 127.264 25.784C126.923 25.784 126.624 25.656 126.368 25.4C126.155 25.1013 126.048 24.7387 126.048 24.312C126.048 23.6293 126.283 22.968 126.752 22.328C127.221 21.688 128.011 20.92 129.12 20.024C130.272 19.0853 131.531 18.2533 132.896 17.528C134.261 16.8027 135.605 16.2267 136.928 15.8C138.251 15.3307 139.381 15.096 140.32 15.096C142.752 15.096 144.693 15.8853 146.144 17.464C147.595 19 148.277 21.0693 148.192 23.672L147.872 36.088C147.829 37.0693 147.979 37.9227 148.32 38.648C148.704 39.3307 149.173 39.672 149.728 39.672C150.496 39.672 151.179 39.3947 151.776 38.84C151.904 38.712 152.032 38.648 152.16 38.648C152.373 38.648 152.544 38.7333 152.672 38.904C152.843 39.032 152.928 39.2027 152.928 39.416C152.928 39.928 152.501 40.6107 151.648 41.464C150.837 42.2747 149.963 42.872 149.024 43.256C148.085 43.6827 147.104 43.896 146.08 43.896C143.605 43.896 141.536 42.6587 139.872 40.184H139.744C138.336 41.5067 137.077 42.4453 135.968 43C134.859 43.5973 133.685 43.896 132.448 43.896ZM136.416 39.48C136.8 39.48 137.12 39.416 137.376 39.288C137.632 39.16 137.867 38.9467 138.08 38.648C138.208 38.4773 138.293 38.264 138.336 38.008C138.421 37.752 138.464 37.4747 138.464 37.176L138.656 32.248C138.656 31.864 138.592 31.6293 138.464 31.544C138.336 31.416 138.187 31.352 138.016 31.352C137.931 31.352 137.824 31.3733 137.696 31.416C137.611 31.416 137.504 31.4587 137.376 31.544C136.352 32.0987 135.563 32.6747 135.008 33.272C134.496 33.8267 134.24 34.8507 134.24 36.344C134.24 37.5813 134.475 38.4133 134.944 38.84C135.456 39.2667 135.947 39.48 136.416 39.48Z" fill="white"/>
</svg>
