<svg width="128" height="52" viewBox="0 0 128 52" fill="none" xmlns="http://www.w3.org/2000/svg">
<path d="M3.85565 19.6384V43H0.134874L0.19587 0.302523H3.91665L3.85565 14.3317L9.95529 8.23205V0.302523H13.6761L13.6151 43H9.8943L9.95529 13.5387L3.85565 19.6384ZM25.4184 43V23.8471L20.2337 23.9081L20.2947 43H16.6349L16.5739 9.81796H20.2337V20.2483L25.4184 20.1873L25.3574 9.81796H29.0171L29.0781 43H25.4184ZM45.7969 13.4777H40.1852V43H36.5254V13.4777L30.9137 13.5387V9.87896L45.7969 9.81796V13.4777ZM50.7943 16.1006V26.043C50.7943 27.5069 52.0142 28.7268 53.5391 28.7268C55.003 28.7268 56.223 27.5069 56.223 26.043V16.1006C56.223 14.5757 55.003 13.3558 53.5391 13.3558C52.0142 13.3558 50.7943 14.5757 50.7943 16.1006ZM53.5391 32.3866C52.5022 32.3866 51.5872 32.2036 50.7333 31.7767V36.5954C50.7333 38.1203 51.9532 39.3402 53.4171 39.3402C54.942 39.3402 56.162 38.1203 56.162 36.5954V34.7045H59.8217V36.5954C59.8217 40.1332 56.9549 43 53.4171 43C49.9403 43 47.0735 40.1332 47.0735 36.6564V36.5954L47.1345 21.0413V16.1006C47.1345 12.5628 50.0013 9.69597 53.5391 9.69597C57.0159 9.69597 59.8827 12.5628 59.8827 16.1006V26.043C59.8827 29.5808 57.0159 32.3866 53.5391 32.3866ZM67.1127 13.4777L67.1737 43H63.5139L63.4529 9.81796H72.7244L72.7854 13.4777H67.1127ZM83.7952 36.9614V17.2595C83.7952 15.8566 82.6363 14.6977 81.1724 14.6977C79.8915 14.6977 78.8545 15.6126 78.6105 16.8325V37.2663C78.7325 38.5473 79.8305 39.5842 81.1724 39.5842C82.6363 39.5842 83.7952 38.4253 83.7952 36.9614ZM81.1724 11.1599C84.5272 11.1599 87.272 13.9047 87.272 17.2595V36.9614C87.272 40.3772 84.5272 43.061 81.1724 43.061C80.2574 43.061 79.4035 42.878 78.6105 42.512V51.9665H75.0728L75.1338 9.69597H78.6105V11.7089C79.4035 11.3429 80.2574 11.1599 81.1724 11.1599ZM98.9891 36.5954V26.714C98.9891 25.1891 97.7691 23.9691 96.3052 23.9691C94.7803 23.9691 93.6214 25.1891 93.6214 26.714V36.5954C93.6214 38.1203 94.7803 39.3402 96.3052 39.3402C97.7691 39.3402 98.9891 38.1203 98.9891 36.5954ZM96.3662 9.81796C99.904 9.81796 102.71 12.6848 102.71 16.1616V43H99.0501V42.329C98.2571 42.756 97.2812 42.939 96.3052 42.939C92.7674 42.939 89.9616 40.1332 89.9616 36.5954V26.714C89.9616 23.1762 92.7674 20.3703 96.3052 20.3703C97.2812 20.3703 98.2571 20.5533 99.0501 20.9803V16.1616C99.0501 14.6977 97.8911 13.4777 96.3662 13.4777C94.9023 13.4777 93.6824 14.6977 93.6824 16.1616V18.0525H90.0226V16.1616C90.0226 12.6848 92.8894 9.81796 96.3662 9.81796ZM114.893 26.043V16.1006C114.893 14.5757 113.673 13.3558 112.149 13.3558C110.685 13.3558 109.465 14.5757 109.465 16.1006V26.043C109.465 27.5679 110.685 28.7878 112.149 28.7878C113.673 28.7878 114.893 27.5679 114.893 26.043ZM124.043 26.043V16.1006C124.043 14.5757 122.823 13.3558 121.359 13.3558C119.834 13.3558 118.614 14.5757 118.614 16.1006V26.043C118.614 27.5679 119.834 28.7878 121.359 28.7878C122.823 28.7878 124.043 27.5679 124.043 26.043ZM121.359 9.69597C124.836 9.69597 127.703 12.5628 127.703 16.1006V26.043C127.703 29.5808 124.836 32.4476 121.359 32.4476C120.383 32.4476 119.407 32.2036 118.614 31.7767L118.553 42.268L118.614 43H114.893V31.7767C114.1 32.2036 113.124 32.4476 112.149 32.4476C108.672 32.4476 105.805 29.5808 105.805 26.043V16.1006C105.805 12.5628 108.672 9.69597 112.149 9.69597C113.124 9.69597 114.039 9.93995 114.893 10.3059V9.69597H118.614V10.3059C119.468 9.93995 120.383 9.69597 121.359 9.69597Z" fill="white"/>
</svg>
