<svg width="145" height="60" viewBox="0 0 145 60" fill="none" xmlns="http://www.w3.org/2000/svg">
<g clip-path="url(#clip0_400_7)">
<path d="M19.4948 38.9895C30.2614 38.9895 38.9895 30.2614 38.9895 19.4948C38.9895 8.7281 30.2614 0 19.4948 0C8.7281 0 0 8.7281 0 19.4948C0 30.2614 8.7281 38.9895 19.4948 38.9895Z" fill="black"/>
<path d="M38.9895 59.5898H0L10.5764 26.4705H28.4131L38.9895 59.5898Z" fill="black"/>
<path d="M68.1897 36.5024V44.7927C67.5024 44.6872 66.8083 44.6312 66.1129 44.6253C62.9141 44.6253 61.3062 46.3001 61.3062 49.5157V59.5645H51.9189V36.9211H60.854V39.358C62.5121 37.4543 64.9573 36.5024 68.1897 36.5024Z" fill="black"/>
<path d="M70.7438 33.7474C70.2542 33.3229 69.8615 32.7981 69.5924 32.2087C69.3233 31.6192 69.1841 30.9788 69.1841 30.3308C69.1841 29.6828 69.3233 29.0424 69.5924 28.4529C69.8615 27.8634 70.2542 27.3387 70.7438 26.9142C71.8904 25.9773 73.3428 25.4971 74.8219 25.566C76.2987 25.4905 77.7538 25.9449 78.9252 26.8472C79.4191 27.2517 79.814 27.7639 80.0796 28.3444C80.3452 28.925 80.4745 29.5586 80.4577 30.1968C80.4771 30.8634 80.3499 31.5261 80.0851 32.1382C79.8203 32.7503 79.4244 33.2967 78.9252 33.739C77.7852 34.7094 76.317 35.2067 74.8219 35.1291C73.3379 35.1926 71.8836 34.6999 70.7438 33.7474ZM70.1409 36.9211H79.503V59.5897H70.1409V36.9211Z" fill="black"/>
<path d="M108.687 36.9211L99.5674 59.5897H89.8703L80.751 36.9211H90.3727L94.9282 49.0635L99.8187 36.9211H108.687Z" fill="black"/>
<path d="M110.537 33.7474C110.048 33.323 109.655 32.7982 109.386 32.2087C109.117 31.6192 108.978 30.9788 108.978 30.3308C108.978 29.6828 109.117 29.0424 109.386 28.4529C109.655 27.8635 110.048 27.3387 110.537 26.9142C111.685 25.9787 113.136 25.4988 114.615 25.566C116.092 25.4891 117.548 25.9436 118.719 26.8472C119.213 27.2518 119.607 27.7639 119.873 28.3445C120.139 28.925 120.268 29.5586 120.251 30.1968C120.271 30.8635 120.143 31.5262 119.879 32.1383C119.614 32.7503 119.218 33.2968 118.719 33.7391C117.579 34.7094 116.11 35.2068 114.615 35.1292C113.132 35.191 111.678 34.6985 110.537 33.7474ZM109.934 36.9212H119.296V59.5897H109.934V36.9212Z" fill="black"/>
<path d="M141.354 39.1737C143.453 40.9546 144.502 43.6985 144.502 47.4054V59.5896H135.802V56.6001C134.722 58.8695 132.586 60 129.379 60C127.792 60.0503 126.216 59.7322 124.773 59.0705C123.609 58.5349 122.626 57.6713 121.944 56.5855C121.263 55.4998 120.913 54.2389 120.938 52.9574C120.889 51.9576 121.1 50.9621 121.55 50.0682C122.001 49.1744 122.676 48.4127 123.509 47.8576C125.184 46.702 127.821 46.1158 131.305 46.1158H135.073C134.772 44.3517 133.348 43.4696 130.803 43.4696C129.749 43.4742 128.702 43.6351 127.696 43.9469C126.74 44.217 125.836 44.6474 125.024 45.2198L122.043 39.0481C123.504 38.1777 125.092 37.5419 126.749 37.164C128.543 36.7143 130.385 36.4837 132.234 36.4773C136.193 36.494 139.232 37.3929 141.354 39.1737ZM133.985 53.8283C134.539 53.4315 134.948 52.8637 135.149 52.2121V50.6378H132.829C130.92 50.6378 129.965 51.2742 129.965 52.5387C129.962 52.7876 130.015 53.0339 130.119 53.2599C130.223 53.4859 130.377 53.6858 130.568 53.8451C131.043 54.2199 131.64 54.405 132.243 54.3642C132.865 54.3674 133.472 54.1804 133.985 53.8283Z" fill="black"/>
</g>
<defs>
<clipPath id="clip0_400_7">
<rect width="144.502" height="60" fill="white"/>
</clipPath>
</defs>
</svg>
