<svg width="388" height="27" viewBox="0 0 388 27" fill="none" xmlns="http://www.w3.org/2000/svg">
<path d="M66.584 16.288C66.4133 17.9307 65.816 19.3707 64.792 20.608C63.768 21.8453 62.4347 22.8053 60.792 23.488C59.1707 24.1707 57.3467 24.512 55.32 24.512C53.08 24.512 51.1067 24.1067 49.4 23.296C47.6933 22.4853 46.36 21.3547 45.4 19.904C44.44 18.4533 43.96 16.7787 43.96 14.88C43.96 12.96 44.44 11.2747 45.4 9.824C46.36 8.37333 47.6933 7.24267 49.4 6.432C51.1067 5.6 53.08 5.184 55.32 5.184C57.3467 5.184 59.1707 5.536 60.792 6.24C62.4347 6.92267 63.768 7.88267 64.792 9.12C65.816 10.336 66.4133 11.776 66.584 13.44H60.088C59.8533 12.352 59.3093 11.52 58.456 10.944C57.6027 10.3467 56.5573 10.048 55.32 10.048C54.36 10.048 53.5173 10.24 52.792 10.624C52.088 10.9867 51.5333 11.5307 51.128 12.256C50.744 12.96 50.552 13.8347 50.552 14.88C50.552 15.904 50.744 16.7787 51.128 17.504C51.5333 18.208 52.088 18.752 52.792 19.136C53.5173 19.4987 54.36 19.68 55.32 19.68C56.5573 19.68 57.6027 19.3707 58.456 18.752C59.3307 18.1333 59.8747 17.312 60.088 16.288H66.584ZM69.167 24V5.728H75.631V20.448L74.223 20L83.791 5.728H92.175V24H85.743V8.864L87.151 9.344L77.327 24H69.167ZM117.584 16.288C117.413 17.9307 116.816 19.3707 115.792 20.608C114.768 21.8453 113.435 22.8053 111.792 23.488C110.171 24.1707 108.347 24.512 106.32 24.512C104.08 24.512 102.107 24.1067 100.4 23.296C98.6933 22.4853 97.36 21.3547 96.4 19.904C95.44 18.4533 94.96 16.7787 94.96 14.88C94.96 12.96 95.44 11.2747 96.4 9.824C97.36 8.37333 98.6933 7.24267 100.4 6.432C102.107 5.6 104.08 5.184 106.32 5.184C108.347 5.184 110.171 5.536 111.792 6.24C113.435 6.92267 114.768 7.88267 115.792 9.12C116.816 10.336 117.413 11.776 117.584 13.44H111.088C110.853 12.352 110.309 11.52 109.456 10.944C108.603 10.3467 107.557 10.048 106.32 10.048C105.36 10.048 104.517 10.24 103.792 10.624C103.088 10.9867 102.533 11.5307 102.128 12.256C101.744 12.96 101.552 13.8347 101.552 14.88C101.552 15.904 101.744 16.7787 102.128 17.504C102.533 18.208 103.088 18.752 103.792 19.136C104.517 19.4987 105.36 19.68 106.32 19.68C107.557 19.68 108.603 19.3707 109.456 18.752C110.331 18.1333 110.875 17.312 111.088 16.288H117.584ZM125.236 7.968H131.796V24H125.236V7.968ZM118.292 5.728H138.74V10.656H118.292V5.728ZM151.106 24.512C148.887 24.512 146.903 24.1067 145.154 23.296C143.426 22.4853 142.06 21.3547 141.058 19.904C140.055 18.432 139.554 16.7253 139.554 14.784C139.554 12.8853 140.034 11.2213 140.994 9.792C141.954 8.34133 143.266 7.21067 144.93 6.4C146.615 5.58933 148.514 5.184 150.626 5.184C152.823 5.184 154.69 5.664 156.226 6.624C157.783 7.56267 158.978 8.896 159.81 10.624C160.663 12.352 161.09 14.3893 161.09 16.736H144.834V12.8H157.41L155.266 14.176C155.18 13.2373 154.946 12.448 154.562 11.808C154.178 11.1467 153.666 10.6453 153.026 10.304C152.407 9.96267 151.66 9.792 150.786 9.792C149.826 9.792 149.004 9.984 148.322 10.368C147.639 10.752 147.106 11.2853 146.722 11.968C146.338 12.6293 146.146 13.408 146.146 14.304C146.146 15.456 146.402 16.4373 146.914 17.248C147.447 18.0373 148.215 18.6453 149.218 19.072C150.242 19.4987 151.49 19.712 152.962 19.712C154.306 19.712 155.639 19.5413 156.962 19.2C158.306 18.8373 159.522 18.336 160.61 17.696V21.856C159.351 22.7093 157.911 23.3707 156.29 23.84C154.69 24.288 152.962 24.512 151.106 24.512ZM163.886 24V5.728H173.71L179.374 20.448H177.55L183.118 5.728H192.942V24H186.83V8.192H187.886L181.422 24H175.438L168.974 8.256L170.03 8.192V24H163.886ZM207.453 24.512C205.107 24.512 203.059 24.1173 201.309 23.328C199.56 22.5173 198.195 21.3867 197.213 19.936C196.232 18.464 195.741 16.7787 195.741 14.88C195.741 12.9387 196.232 11.2427 197.213 9.792C198.195 8.34133 199.56 7.21067 201.309 6.4C203.059 5.58933 205.107 5.184 207.453 5.184C209.779 5.184 211.816 5.58933 213.565 6.4C215.336 7.21067 216.712 8.34133 217.693 9.792C218.675 11.2427 219.165 12.9387 219.165 14.88C219.165 16.7787 218.675 18.464 217.693 19.936C216.712 21.3867 215.336 22.5173 213.565 23.328C211.816 24.1173 209.779 24.512 207.453 24.512ZM207.453 19.68C208.52 19.68 209.427 19.488 210.173 19.104C210.941 18.72 211.528 18.1653 211.933 17.44C212.339 16.7147 212.541 15.8613 212.541 14.88C212.541 13.856 212.339 12.992 211.933 12.288C211.528 11.5627 210.941 11.008 210.173 10.624C209.427 10.24 208.52 10.048 207.453 10.048C206.387 10.048 205.469 10.24 204.701 10.624C203.933 11.008 203.347 11.5627 202.941 12.288C202.536 12.992 202.333 13.8453 202.333 14.848C202.333 15.8507 202.536 16.7147 202.941 17.44C203.347 18.1653 203.933 18.72 204.701 19.104C205.469 19.488 206.387 19.68 207.453 19.68ZM226.923 7.968H233.483V24H226.923V7.968ZM219.979 5.728H240.427V10.656H219.979V5.728ZM252.793 24.512C250.575 24.512 248.591 24.1067 246.841 23.296C245.113 22.4853 243.748 21.3547 242.745 19.904C241.743 18.432 241.241 16.7253 241.241 14.784C241.241 12.8853 241.721 11.2213 242.681 9.792C243.641 8.34133 244.953 7.21067 246.617 6.4C248.303 5.58933 250.201 5.184 252.313 5.184C254.511 5.184 256.377 5.664 257.913 6.624C259.471 7.56267 260.665 8.896 261.497 10.624C262.351 12.352 262.777 14.3893 262.777 16.736H246.521V12.8H259.097L256.953 14.176C256.868 13.2373 256.633 12.448 256.249 11.808C255.865 11.1467 255.353 10.6453 254.713 10.304C254.095 9.96267 253.348 9.792 252.473 9.792C251.513 9.792 250.692 9.984 250.009 10.368C249.327 10.752 248.793 11.2853 248.409 11.968C248.025 12.6293 247.833 13.408 247.833 14.304C247.833 15.456 248.089 16.4373 248.601 17.248C249.135 18.0373 249.903 18.6453 250.905 19.072C251.929 19.4987 253.177 19.712 254.649 19.712C255.993 19.712 257.327 19.5413 258.649 19.2C259.993 18.8373 261.209 18.336 262.297 17.696V21.856C261.039 22.7093 259.599 23.3707 257.977 23.84C256.377 24.288 254.649 24.512 252.793 24.512ZM262.647 24L271.127 13.76L271.095 15.68L263.127 5.728H270.391L275.543 12.032H273.623L278.775 5.728H285.943L277.687 15.744L277.367 13.152L286.455 24H279.031L273.431 17.248H275.479L269.943 24H262.647ZM287.823 5.728H294.351V24H287.823V5.728ZM302.991 5.728H309.519V24H302.991V5.728ZM291.599 12.224H305.455V17.088H291.599V12.224ZM313.105 24V5.728H319.569V20.448L318.161 20L327.729 5.728H336.113V24H329.681V8.864L331.089 9.344L321.265 24H313.105ZM339.73 24V5.728H346.29V18.912L344.37 18.24L354.546 5.728H361.458L345.554 24H339.73ZM354.61 24L349.394 15.072L354.322 11.616L361.97 24H354.61ZM379.023 24L378.191 17.408L379.055 14.88L378.191 12.352L379.023 5.728H385.807L384.655 14.848L385.807 24H379.023ZM380.559 14.88C380.26 16.8 379.663 18.4853 378.767 19.936C377.892 21.3867 376.772 22.5173 375.407 23.328C374.063 24.1173 372.527 24.512 370.799 24.512C369.007 24.512 367.428 24.1173 366.063 23.328C364.719 22.5173 363.663 21.3867 362.895 19.936C362.127 18.464 361.743 16.7787 361.743 14.88C361.743 12.9387 362.127 11.2427 362.895 9.792C363.663 8.34133 364.719 7.21067 366.063 6.4C367.428 5.58933 369.007 5.184 370.799 5.184C372.527 5.184 374.063 5.58933 375.407 6.4C376.772 7.18933 377.903 8.30933 378.799 9.76C379.695 11.1893 380.281 12.896 380.559 14.88ZM368.367 14.88C368.367 15.776 368.548 16.576 368.911 17.28C369.295 17.984 369.817 18.5387 370.479 18.944C371.14 19.328 371.897 19.52 372.751 19.52C373.647 19.52 374.489 19.328 375.279 18.944C376.068 18.5387 376.761 17.984 377.359 17.28C377.956 16.576 378.404 15.776 378.703 14.88C378.404 13.9627 377.956 13.152 377.359 12.448C376.761 11.744 376.068 11.1893 375.279 10.784C374.489 10.3787 373.647 10.176 372.751 10.176C371.897 10.176 371.14 10.3787 370.479 10.784C369.817 11.1893 369.295 11.744 368.911 12.448C368.548 13.152 368.367 13.9627 368.367 14.88Z" fill="black"/>
<path d="M5.77513 12.3105V7.78591H26.2249V12.3105H32V2H0V12.3105H5.77513Z" fill="black"/>
<path d="M26.2249 15.7939V20.5991H5.77513V15.7939H0V26.3851H32V15.7939H26.2249Z" fill="black"/>
</svg>
