<svg width="200" height="46" viewBox="0 0 200 46" fill="none" xmlns="http://www.w3.org/2000/svg">
<g clip-path="url(#clip0_390_8)">
<path d="M60.3566 18.9896C58.7783 18.1561 57.4591 16.9058 56.5425 15.3747C55.6069 13.7936 55.1261 11.985 55.153 10.1482C55.1255 8.31001 55.6064 6.49994 56.5425 4.91755C57.4591 3.38648 58.7783 2.13614 60.3566 1.30266C62.0356 0.418538 63.91 -0.0293641 65.8075 0.000148845C67.3912 -0.0227726 68.9623 0.283206 70.4215 0.898718C71.7631 1.47228 72.95 2.35505 73.8851 3.47489L70.9699 6.18296C70.3718 5.45174 69.6161 4.86509 68.7593 4.46681C67.9025 4.06854 66.9667 3.86895 66.0219 3.88296C64.8866 3.86354 63.7656 4.13907 62.7687 4.6826C61.8305 5.20197 61.0575 5.97472 60.538 6.91253C59.9955 7.90943 59.7213 9.03005 59.7422 10.1647C59.7218 11.298 59.996 12.4171 60.538 13.4127C61.0564 14.3514 61.8297 15.1244 62.7687 15.6427C63.7656 16.1862 64.8866 16.4617 66.0219 16.4423C66.9695 16.4556 67.9076 16.2527 68.765 15.8492C69.6224 15.4456 70.3764 14.852 70.9699 14.1134L73.8851 16.805C72.9544 17.9428 71.7617 18.8381 70.4091 19.4142C68.9449 20.0271 67.37 20.3316 65.7828 20.3086C63.892 20.3312 62.0259 19.8776 60.3566 18.9896Z" fill="white"/>
<path d="M75.9468 0.338135H80.4577V13.1159L89.8258 0.338135H94.0851V19.9583H89.599V7.20518L80.235 19.9583H75.9468V0.338135Z" fill="white"/>
<path d="M101.944 18.9897C100.366 18.1571 99.0482 16.9065 98.1342 15.3748C97.1968 13.7944 96.7159 11.9853 96.7447 10.1483C96.7153 8.30982 97.1963 6.49923 98.1342 4.91759C99.0482 3.38588 100.366 2.13524 101.944 1.30271C103.624 0.418078 105.5 -0.0298335 107.399 0.000195633C108.983 -0.0218886 110.554 0.284057 112.013 0.898764C113.354 1.47138 114.54 2.35436 115.473 3.47494L112.566 6.18301C111.968 5.45179 111.212 4.86513 110.355 4.46686C109.498 4.06859 108.563 3.869 107.618 3.883C106.484 3.86411 105.364 4.13964 104.369 4.68265C103.429 5.19966 102.655 5.973 102.138 6.91258C101.594 7.90915 101.319 9.02975 101.338 10.1647C101.319 11.2984 101.595 12.4175 102.138 13.4128C102.654 14.3532 103.428 15.1268 104.369 15.6427C105.366 16.18 106.485 16.4498 107.618 16.4259C108.565 16.4391 109.503 16.2363 110.361 15.8327C111.218 15.4292 111.972 14.8356 112.566 14.097L115.481 16.7886C114.552 17.9281 113.359 18.8238 112.005 19.3977C110.541 20.0107 108.966 20.3151 107.379 20.2922C105.486 20.3212 103.617 19.8733 101.944 18.9897Z" fill="white"/>
<path d="M133.636 4.03537H127.356V19.9582H122.874V4.03537H116.619V0.325684H133.636V4.03537Z" fill="white"/>
<path d="M150.859 16.3145V19.9583H135.656V0.338135H150.5V3.98187H140.192V8.24389H149.304V11.7763H140.192V16.3104L150.859 16.3145Z" fill="white"/>
<path d="M171.661 19.9583L171.636 8.21092L165.863 17.8808H163.843L158.07 8.43762V19.9789H153.799V0.338135H157.555L164.907 12.5306L172.139 0.338135H175.895L175.924 19.9583H171.661Z" fill="white"/>
<path d="M183.75 18.9607C182.162 18.1252 180.834 16.8689 179.911 15.3294C178.985 13.7615 178.51 11.9686 178.538 10.1482C178.507 8.32074 178.982 6.52022 179.911 4.94637C180.834 3.40794 182.162 2.15301 183.75 1.31912C185.447 0.426352 187.341 -0.0271205 189.259 0.000124952C191.172 -0.0293035 193.061 0.424378 194.751 1.31912C196.356 2.16276 197.696 3.43438 198.621 4.99287C199.547 6.55137 200.023 8.3358 199.996 10.1482C200.019 11.9572 199.542 13.7375 198.618 15.2926C197.693 16.8477 196.356 18.1171 194.755 18.9607C193.065 19.8606 191.174 20.3186 189.259 20.2921C187.34 20.3157 185.446 19.858 183.75 18.9607ZM192.409 15.6097C193.338 15.0924 194.103 14.3257 194.619 13.3962C195.162 12.4009 195.438 11.2818 195.419 10.1482C195.439 9.01319 195.163 7.8926 194.619 6.89602C194.107 5.9625 193.344 5.19027 192.417 4.66609C191.454 4.14154 190.374 3.8667 189.277 3.8667C188.18 3.8667 187.101 4.14154 186.138 4.66609C185.21 5.19027 184.448 5.9625 183.936 6.89602C183.392 7.8926 183.116 9.01319 183.136 10.1482C183.117 11.2818 183.393 12.4009 183.936 13.3962C184.447 14.3307 185.21 15.1032 186.138 15.6262C187.101 16.1507 188.18 16.4255 189.277 16.4255C190.374 16.4255 191.454 16.1507 192.417 15.6262L192.409 15.6097Z" fill="white"/>
<path d="M73.1513 30.0031H66.8715V45.9259H62.3854V30.0031H56.1304V26.2935H73.1513V30.0031Z" fill="white"/>
<path d="M90.3701 42.2823V45.926H75.1758V26.3059H90.0196V29.9496H79.7114V34.2117H88.8239V37.7441H79.7114V42.2782L90.3701 42.2823Z" fill="white"/>
<path d="M97.4621 26.3059L101.528 32.2455L105.593 26.3059H110.916L104.389 35.6955L111.452 45.926H106.092L101.528 39.4217L97.0127 45.926H91.772L98.7816 35.8893L92.2173 26.3059H97.4621Z" fill="white"/>
<path d="M131.401 26.3059V45.926H126.865V37.8801H117.926V45.926H113.39V26.3059H117.926V34.0385H126.841V26.3059H131.401Z" fill="white"/>
<path d="M135.31 26.3059H139.825V39.0837L149.189 26.3059H153.452V45.926H148.966V33.173L139.602 45.926H135.31V26.3059Z" fill="white"/>
<path d="M164.965 38.0203H161.823V45.926H157.308V26.3059H161.823V34.2364H165.076L170.234 26.3059H175.029L168.61 35.7862L175.24 45.926H170.065L164.965 38.0203Z" fill="white"/>
<path d="M191.7 41.7217H182.587L180.851 45.926H176.196L184.942 26.3059H189.428L198.206 45.926H193.44L191.7 41.7217ZM190.269 38.2717L187.16 30.7617L184.047 38.2717H190.269Z" fill="white"/>
<path d="M8.24657 14.7565V8.30991H37.4477V14.7565H45.6943V0.0661621H0V14.7565H8.24657Z" fill="white"/>
<path d="M37.4477 30.6545V37.501H8.24657V30.6545H0V45.7447H45.6943V30.6545H37.4477Z" fill="white"/>
<path d="M32.9492 30.5349H12.7451V32.5958H32.9492V30.5349Z" fill="white"/>
<path d="M15.0128 8.27686H12.9512V23.94H15.0128V8.27686Z" fill="white"/>
</g>
<defs>
<clipPath id="clip0_390_8">
<rect width="200" height="45.9259" fill="white"/>
</clipPath>
</defs>
</svg>
