<svg width="131" height="149" viewBox="0 0 131 149" fill="none" xmlns="http://www.w3.org/2000/svg">
<g clip-path="url(#clip0_390_29)">
<path d="M128.469 65.1154C128.463 76.2261 125.703 87.1627 120.437 96.9509C115.17 106.739 107.559 115.075 98.283 121.216C89.0067 127.357 78.3527 131.112 67.2702 132.147C56.1876 133.183 45.0206 131.465 34.764 127.149L87.8001 3.36816C99.874 8.57881 110.157 17.2008 117.384 28.1722C124.61 39.1437 128.463 51.9853 128.469 65.1154Z" stroke="black" stroke-width="6" stroke-miterlimit="10"/>
<path d="M61.0501 125.204C94.0683 125.204 120.835 98.4861 120.835 65.5281C120.835 32.5701 94.0683 5.85229 61.0501 5.85229C28.0319 5.85229 1.26538 32.5701 1.26538 65.5281C1.26538 98.4861 28.0319 125.204 61.0501 125.204Z" fill="url(#paint0_linear_390_29)" stroke="black" stroke-width="3" stroke-miterlimit="10"/>
<path d="M56.0898 42.0518C58.6546 49.6391 60.8227 57.3542 62.5854 65.166C63.4402 68.9664 64.1938 72.7865 64.8462 76.6262C65.1836 78.6135 65.4957 80.6035 65.7826 82.5964C65.85 83.0511 65.9091 83.4973 65.9766 83.952C65.9766 84.1036 66.0862 84.7941 65.9766 83.952L66.0525 84.5331C66.1875 85.5688 66.314 86.6045 66.4405 87.6486C66.9636 92.1676 67.3685 96.7034 67.6553 101.256L74.8511 98.2752L71.3418 94.065C69.933 92.3809 66.8202 92.4988 65.3776 94.065C64.6146 94.8689 64.1894 95.9342 64.1894 97.0417C64.1894 98.1491 64.6146 99.2144 65.3776 100.018L68.8869 104.279C69.4769 104.869 70.2291 105.272 71.0483 105.435C71.8675 105.598 72.7167 105.514 73.4884 105.195C74.26 104.876 74.9193 104.335 75.3827 103.641C75.8461 102.947 76.0926 102.132 76.0911 101.298C75.1218 84.993 72.5017 68.8275 68.2711 53.049C67.0564 48.5917 65.7066 44.1738 64.2219 39.7952C63.5217 37.7153 61.2863 36.1323 59.0339 36.8564C56.9587 37.5301 55.3306 39.8036 56.0898 42.035V42.0518Z" fill="black"/>
<path d="M42.7022 63.9954C36.2456 60.0419 29.2502 57.0413 21.9331 55.0866L22.937 62.7744C31.4572 58.1151 40.1742 53.8459 49.0881 49.9669L50.7078 49.268L51.4248 48.9565L52.0069 48.7123C51.4586 48.948 52.6396 48.4512 52.5805 48.4765L53.306 48.1734L55.1113 47.4324C57.4058 46.4977 59.7172 45.5883 62.0286 44.7126C66.5278 42.9948 71.0747 41.3809 75.6694 39.8708C78.2789 39.0119 80.8912 38.1895 83.5063 37.4036C84.7548 37.0247 86.037 36.6542 87.2602 36.2921L89.1414 35.7616C89.5885 35.6353 90.6852 35.5427 89.1414 35.5511C88.9129 35.6095 88.6744 35.6172 88.4426 35.5736C88.2109 35.5299 87.9915 35.436 87.8001 35.2985C88.6943 35.8598 88.25 35.2339 86.4673 33.4207V31.1556V31.2651L87.5555 29.4126L88.1376 28.9242C86.113 29.8252 85.4887 32.9239 86.6275 34.6922C87.9773 36.7805 90.2296 37.1594 92.3976 36.1995C94.7512 35.1553 95.2658 32.1156 94.1776 30.0189C93.6612 29.1811 92.943 28.4856 92.0884 27.9959C91.2338 27.5061 90.27 27.2376 89.2848 27.2148C87.8401 27.3093 86.418 27.6216 85.0669 28.1411C83.6947 28.534 82.3196 28.941 80.9418 29.3621C75.824 30.9114 70.7625 32.5955 65.7573 34.4143C55.3089 38.1448 45.0549 42.3968 35.034 47.1545C29.5001 49.7817 24.0421 52.5688 18.66 55.516C15.4629 57.2675 16.2221 62.2524 19.6723 63.2123C21.3595 63.667 23.0467 64.1807 24.7338 64.7617C25.5774 65.048 26.421 65.3511 27.2224 65.6711C27.6358 65.8226 28.066 65.9911 28.4625 66.1595L28.9855 66.37C28.5637 66.1931 28.5721 66.2016 28.9855 66.37C32.2283 67.7925 35.3708 69.4327 38.3915 71.2791C39.3605 71.831 40.5078 71.9814 41.5867 71.6979C42.6657 71.4145 43.5902 70.7199 44.1616 69.7634C44.7114 68.7999 44.8666 67.6614 44.5945 66.5863C44.3225 65.5112 43.6444 64.5828 42.7022 63.9954Z" fill="black"/>
<path d="M88.2979 2.16406L87.8002 3.32609" stroke="black" stroke-width="6" stroke-miterlimit="10"/>
<path d="M61.6153 149C85.3761 149 104.638 146.55 104.638 143.527C104.638 140.504 85.3761 138.053 61.6153 138.053C37.8545 138.053 18.5925 140.504 18.5925 143.527C18.5925 146.55 37.8545 149 61.6153 149Z" fill="black"/>
</g>
<defs>
<linearGradient id="paint0_linear_390_29" x1="103.322" y1="107.723" x2="18.9324" y2="23.1792" gradientUnits="userSpaceOnUse">
<stop stop-color="#6FD9CE"/>
<stop offset="0.99" stop-color="#14EFD5"/>
</linearGradient>
<clipPath id="clip0_390_29">
<rect width="131" height="149" fill="white"/>
</clipPath>
</defs>
</svg>
