<svg width="327" height="30" viewBox="0 0 327 30" fill="none" xmlns="http://www.w3.org/2000/svg">
<path d="M326.755 5.83999H320.035V22H314.075V5.83999H307.355V0.959991H326.755V5.83999Z" fill="#EE3F58"/>
<path d="M284.995 11.64C284.995 9.77333 285.275 8.14666 285.835 6.75999C286.422 5.34666 287.182 4.17333 288.115 3.23999C289.049 2.30666 290.115 1.59999 291.315 1.11999C292.542 0.639993 293.795 0.399994 295.075 0.399994C298.062 0.399994 300.422 1.31999 302.155 3.15999C303.889 4.97333 304.755 7.65333 304.755 11.2C304.755 11.5467 304.742 11.9333 304.715 12.36C304.689 12.76 304.662 13.12 304.635 13.44H291.115C291.249 14.6667 291.822 15.64 292.835 16.36C293.849 17.08 295.209 17.44 296.915 17.44C298.009 17.44 299.075 17.3467 300.115 17.16C301.182 16.9467 302.049 16.6933 302.715 16.4L303.515 21.24C303.195 21.4 302.769 21.56 302.235 21.72C301.702 21.88 301.102 22.0133 300.435 22.12C299.795 22.2533 299.102 22.36 298.355 22.44C297.609 22.52 296.862 22.56 296.115 22.56C294.222 22.56 292.569 22.28 291.155 21.72C289.769 21.16 288.609 20.4 287.675 19.44C286.769 18.4533 286.089 17.2933 285.635 15.96C285.209 14.6267 284.995 13.1867 284.995 11.64ZM298.995 9.35999C298.969 8.85333 298.875 8.35999 298.715 7.87999C298.582 7.39999 298.355 6.97333 298.035 6.59999C297.742 6.22666 297.355 5.91999 296.875 5.67999C296.422 5.43999 295.849 5.31999 295.155 5.31999C294.489 5.31999 293.915 5.43999 293.435 5.67999C292.955 5.89333 292.555 6.18666 292.235 6.55999C291.915 6.93333 291.662 7.37333 291.475 7.87999C291.315 8.35999 291.195 8.85333 291.115 9.35999H298.995Z" fill="#EE3F58"/>
<path d="M280.404 22H274.444V13.68H268.244V22H262.284V0.959991H268.244V8.79999H274.444V0.959991H280.404V22Z" fill="#EE3F58"/>
<path d="M228.165 9.87999C228.112 10.8133 228.059 11.8267 228.005 12.92C227.952 14.0133 227.899 15.12 227.845 16.24C227.819 17.3333 227.779 18.3867 227.725 19.4C227.699 20.3867 227.672 21.2533 227.645 22H221.845C221.899 20.5333 221.979 18.88 222.085 17.04C222.219 15.2 222.352 13.3333 222.485 11.44C222.645 9.51999 222.805 7.65333 222.965 5.83999C223.152 4.02666 223.325 2.39999 223.485 0.959991H228.445C229.592 2.82666 230.645 4.75999 231.605 6.75999C232.565 8.75999 233.579 10.96 234.645 13.36C235.765 10.8 236.859 8.43999 237.925 6.27999C238.992 4.09332 239.952 2.31999 240.805 0.959991H245.845C246.032 2.39999 246.205 4.02666 246.365 5.83999C246.552 7.65333 246.712 9.51999 246.845 11.44C247.005 13.3333 247.139 15.2 247.245 17.04C247.352 18.88 247.432 20.5333 247.485 22H241.565C241.512 19.92 241.432 17.8533 241.325 15.8C241.245 13.7467 241.165 11.76 241.085 9.83999L236.685 19.52H232.565L228.165 9.87999Z" fill="#0065B1"/>
<path d="M207.606 14.52C206.753 15.7733 205.993 17.04 205.326 18.32C204.659 19.5733 204.019 20.8 203.406 22H197.286C198.059 20.2667 198.846 18.68 199.646 17.24C200.446 15.8 201.219 14.56 201.966 13.52C200.846 12.9333 199.953 12.1867 199.286 11.28C198.619 10.3467 198.286 9.18665 198.286 7.79999C198.286 5.45332 199.126 3.65332 200.806 2.39999C202.513 1.14666 204.859 0.519989 207.846 0.519989C208.513 0.519989 209.246 0.546654 210.046 0.599987C210.873 0.65332 211.686 0.73332 212.486 0.839987C213.286 0.946654 214.046 1.06665 214.766 1.19999C215.513 1.30665 216.139 1.42665 216.646 1.55999V22H210.686V14.52H207.606ZM210.686 5.23999C210.419 5.21332 210.006 5.18665 209.446 5.15999C208.886 5.10665 208.406 5.07999 208.006 5.07999C206.539 5.07999 205.539 5.33332 205.006 5.83999C204.473 6.31999 204.206 6.94665 204.206 7.71999C204.206 8.19999 204.313 8.61332 204.526 8.95999C204.739 9.27999 205.019 9.54665 205.366 9.75999C205.713 9.94665 206.099 10.08 206.526 10.16C206.953 10.24 207.379 10.28 207.806 10.28H210.686V5.23999Z" fill="#0065B1"/>
<path d="M193.28 0.959991V22H187.28C187.28 20.6667 187.294 19.3467 187.32 18.04C187.347 16.7067 187.374 15.48 187.4 14.36C187.427 13.24 187.454 12.2667 187.48 11.44C187.534 10.5867 187.56 9.95999 187.56 9.55999C186.787 10.6533 186.014 11.76 185.24 12.88C184.467 14 183.72 15.1067 183 16.2C182.307 17.2667 181.64 18.2933 181 19.28C180.387 20.2667 179.84 21.1733 179.36 22H174.12V0.959991H180.08C180.08 2.29333 180.067 3.57332 180.04 4.79999C180.04 5.99999 180.027 7.09333 180 8.07999C179.974 9.06666 179.947 9.93332 179.92 10.68C179.894 11.4 179.88 11.96 179.88 12.36C181.48 10.0133 182.947 7.90666 184.28 6.03999C185.64 4.17332 186.96 2.47999 188.24 0.959991H193.28Z" fill="#0065B1"/>
<path d="M168.529 22H162.569V13.68H156.369V22H150.409V0.959991H156.369V8.79999H162.569V0.959991H168.529V22Z" fill="#0065B1"/>
<path d="M126.05 11.64C126.05 9.77333 126.33 8.14666 126.89 6.75999C127.477 5.34666 128.237 4.17333 129.17 3.23999C130.103 2.30666 131.17 1.59999 132.37 1.11999C133.597 0.639993 134.85 0.399994 136.13 0.399994C139.117 0.399994 141.477 1.31999 143.21 3.15999C144.943 4.97333 145.81 7.65333 145.81 11.2C145.81 11.5467 145.797 11.9333 145.77 12.36C145.743 12.76 145.717 13.12 145.69 13.44H132.17C132.303 14.6667 132.877 15.64 133.89 16.36C134.903 17.08 136.263 17.44 137.97 17.44C139.063 17.44 140.13 17.3467 141.17 17.16C142.237 16.9467 143.103 16.6933 143.77 16.4L144.57 21.24C144.25 21.4 143.823 21.56 143.29 21.72C142.757 21.88 142.157 22.0133 141.49 22.12C140.85 22.2533 140.157 22.36 139.41 22.44C138.663 22.52 137.917 22.56 137.17 22.56C135.277 22.56 133.623 22.28 132.21 21.72C130.823 21.16 129.663 20.4 128.73 19.44C127.823 18.4533 127.143 17.2933 126.69 15.96C126.263 14.6267 126.05 13.1867 126.05 11.64ZM140.05 9.35999C140.023 8.85333 139.93 8.35999 139.77 7.87999C139.637 7.39999 139.41 6.97333 139.09 6.59999C138.797 6.22666 138.41 5.91999 137.93 5.67999C137.477 5.43999 136.903 5.31999 136.21 5.31999C135.543 5.31999 134.97 5.43999 134.49 5.67999C134.01 5.89333 133.61 6.18666 133.29 6.55999C132.97 6.93333 132.717 7.37333 132.53 7.87999C132.37 8.35999 132.25 8.85333 132.17 9.35999H140.05Z" fill="#0065B1"/>
<path d="M92.6359 22V0.959991H98.5959V17.12H104.076V0.959991H110.036V17.12H115.476V0.959991H121.436V22H92.6359Z" fill="#0065B1"/>
<path d="M89.4409 0.959991C88.2409 5.01333 86.9876 8.81332 85.6809 12.36C84.3743 15.9067 82.9476 19.3467 81.4009 22.68C80.8409 23.88 80.2809 24.8933 79.7209 25.72C79.1609 26.5733 78.5476 27.2667 77.8809 27.8C77.2143 28.36 76.4543 28.76 75.6009 29C74.7743 29.2667 73.8009 29.4 72.6809 29.4C71.7476 29.4 70.8809 29.3067 70.0809 29.12C69.3076 28.96 68.6676 28.7733 68.1609 28.56L69.2009 23.8C69.8143 24.0133 70.3609 24.16 70.8409 24.24C71.3209 24.32 71.8276 24.36 72.3609 24.36C73.4276 24.36 74.2409 24.0667 74.8009 23.48C75.3876 22.92 75.8809 22.1333 76.2809 21.12C74.9209 18.4533 73.5609 15.4667 72.2009 12.16C70.8409 8.82666 69.5609 5.09332 68.3609 0.959991H74.6809C74.9476 1.99999 75.2543 3.13332 75.6009 4.35999C75.9743 5.55999 76.3609 6.78666 76.7609 8.03999C77.1609 9.26666 77.5609 10.4667 77.9609 11.64C78.3876 12.8133 78.7876 13.88 79.1609 14.84C79.5076 13.88 79.8676 12.8133 80.2409 11.64C80.6143 10.4667 80.9743 9.26666 81.3209 8.03999C81.6943 6.78666 82.0409 5.55999 82.3609 4.35999C82.7076 3.13332 83.0143 1.99999 83.2809 0.959991H89.4409Z" fill="#0065B1"/>
<path d="M60.1003 11.64C60.1003 9.8 59.687 8.33333 58.8603 7.24C58.0337 6.12 56.807 5.56 55.1803 5.56C54.647 5.56 54.1537 5.58666 53.7003 5.64C53.247 5.66666 52.8737 5.70666 52.5803 5.76V16.52C52.9537 16.76 53.4337 16.96 54.0203 17.12C54.6337 17.28 55.247 17.36 55.8603 17.36C58.687 17.36 60.1003 15.4533 60.1003 11.64ZM66.1803 11.48C66.1803 13.1067 65.9803 14.5867 65.5803 15.92C65.1803 17.2533 64.5937 18.4 63.8203 19.36C63.047 20.32 62.087 21.0667 60.9403 21.6C59.7937 22.1333 58.4736 22.4 56.9803 22.4C56.1536 22.4 55.3803 22.32 54.6603 22.16C53.9403 22 53.247 21.7733 52.5803 21.48V29.4H46.6203V1.68C47.1536 1.52 47.767 1.37333 48.4603 1.24C49.1536 1.08 49.8736 0.946663 50.6203 0.839996C51.3936 0.733329 52.167 0.653329 52.9403 0.599997C53.7403 0.519996 54.5003 0.479996 55.2203 0.479996C56.9537 0.479996 58.5003 0.746662 59.8603 1.28C61.2203 1.78666 62.367 2.52 63.3003 3.48C64.2337 4.41333 64.9403 5.56 65.4203 6.92C65.927 8.28 66.1803 9.8 66.1803 11.48Z" fill="#0065B1"/>
<path d="M32.5509 17.84C33.1376 17.84 33.6976 17.8267 34.2309 17.8C34.7643 17.7733 35.1909 17.7333 35.5109 17.68V13.16C35.2709 13.1067 34.9109 13.0533 34.4309 13C33.9509 12.9467 33.5109 12.92 33.1109 12.92C32.5509 12.92 32.0176 12.96 31.5109 13.04C31.0309 13.0933 30.6043 13.2133 30.2309 13.4C29.8576 13.5867 29.5643 13.84 29.3509 14.16C29.1376 14.48 29.0309 14.88 29.0309 15.36C29.0309 16.2933 29.3376 16.9467 29.9509 17.32C30.5909 17.6667 31.4576 17.84 32.5509 17.84ZM32.0709 0.399994C33.8309 0.399994 35.2976 0.599993 36.4709 0.999992C37.6443 1.39999 38.5776 1.97333 39.2709 2.71999C39.9909 3.46666 40.4976 4.37333 40.7909 5.43999C41.0843 6.50666 41.2309 7.69333 41.2309 8.99999V21.4C40.3776 21.5867 39.1909 21.8 37.6709 22.04C36.1509 22.3067 34.3109 22.44 32.1509 22.44C30.7909 22.44 29.5509 22.32 28.4309 22.08C27.3376 21.84 26.3909 21.4533 25.5909 20.92C24.7909 20.36 24.1776 19.64 23.7509 18.76C23.3243 17.88 23.1109 16.8 23.1109 15.52C23.1109 14.2933 23.3509 13.2533 23.8309 12.4C24.3376 11.5467 25.0043 10.8667 25.8309 10.36C26.6576 9.85333 27.6043 9.49333 28.6709 9.27999C29.7376 9.03999 30.8443 8.91999 31.9909 8.91999C32.7643 8.91999 33.4443 8.95999 34.0309 9.04C34.6443 9.09333 35.1376 9.17333 35.5109 9.27999V8.71999C35.5109 7.70666 35.2043 6.89333 34.5909 6.27999C33.9776 5.66666 32.9109 5.35999 31.3909 5.35999C30.3776 5.35999 29.3776 5.43999 28.3909 5.59999C27.4043 5.73333 26.5509 5.93333 25.8309 6.19999L25.0709 1.39999C25.4176 1.29333 25.8443 1.18666 26.3509 1.07999C26.8843 0.946661 27.4576 0.839993 28.0709 0.759993C28.6843 0.653326 29.3243 0.573327 29.9909 0.519995C30.6843 0.439994 31.3776 0.399994 32.0709 0.399994Z" fill="#0065B1"/>
<path d="M18.92 22H12.96V13.68H6.76V22H0.800003V0.959991H6.76V8.79999H12.96V0.959991H18.92V22Z" fill="#0065B1"/>
</svg>
