<svg width="67" height="65" viewBox="0 0 67 65" fill="none" xmlns="http://www.w3.org/2000/svg">
<path fill-rule="evenodd" clip-rule="evenodd" d="M45.2259 65C37.1885 65 25.7555 64.595 18.1308 64.595C3.87072 64.595 0 56.1604 0 45.4361C0 34.7118 0.210281 22.8505 0.210281 18.785C0.210281 6.73676 5.54517 0.04673 18.7695 0.04673C23.6604 0.04673 42.0561 0 48.3177 0C60.3505 0 66.1215 4.96884 66.1215 19.5171C66.1215 23.1075 65.8567 29.8287 65.8567 48.4657C65.8567 60.1869 60.3193 65 45.2259 65ZM57.6869 23.3255L49.4159 17.4377L37.2508 30.8489L37.6246 18.933L26.285 18.7461L27.609 23.0997L27.8738 36.3396C23.7461 35.6231 18.715 25.2726 19.0343 19.2056L8.23209 19.3536C10.8645 40.7009 26.6433 51.067 36.7134 49.6028L36.9548 41.7212C37.7336 41.3474 38.7928 40.771 40.0701 40.0078L47.352 49.5639L59.3302 48.9174L47.8582 34.4393C51.7097 31.2839 55.0306 27.5318 57.6947 23.3255H57.6869Z" fill="#A5A5A5"/>
</svg>