<svg width="70" height="31" viewBox="0 0 70 31" fill="none" xmlns="http://www.w3.org/2000/svg">
<path d="M17.184 8.168C16.224 11.4107 15.2213 14.4507 14.176 17.288C13.1307 20.1253 11.9893 22.8773 10.752 25.544C10.304 26.504 9.856 27.3147 9.408 27.976C8.96 28.6587 8.46933 29.2133 7.936 29.64C7.40267 30.088 6.79467 30.408 6.112 30.6C5.45067 30.8133 4.672 30.92 3.776 30.92C3.02933 30.92 2.336 30.8453 1.696 30.696C1.07733 30.568 0.565333 30.4187 0.16 30.248L0.992 26.44C1.48267 26.6107 1.92 26.728 2.304 26.792C2.688 26.856 3.09333 26.888 3.52 26.888C4.37333 26.888 5.024 26.6533 5.472 26.184C5.94133 25.736 6.336 25.1067 6.656 24.296C5.568 22.1627 4.48 19.7733 3.392 17.128C2.304 14.4613 1.28 11.4747 0.32 8.168H5.376C5.58933 9 5.83467 9.90667 6.112 10.888C6.41067 11.848 6.72 12.8293 7.04 13.832C7.36 14.8133 7.68 15.7733 8 16.712C8.34133 17.6507 8.66133 18.504 8.96 19.272C9.23733 18.504 9.52533 17.6507 9.824 16.712C10.1227 15.7733 10.4107 14.8133 10.688 13.832C10.9867 12.8293 11.264 11.848 11.52 10.888C11.7973 9.90667 12.0427 9 12.256 8.168H17.184ZM25.8595 21.672C26.3288 21.672 26.7768 21.6613 27.2035 21.64C27.6302 21.6187 27.9715 21.5867 28.2275 21.544V17.928C28.0355 17.8853 27.7475 17.8427 27.3635 17.8C26.9795 17.7573 26.6275 17.736 26.3075 17.736C25.8595 17.736 25.4328 17.768 25.0275 17.832C24.6435 17.8747 24.3022 17.9707 24.0035 18.12C23.7048 18.2693 23.4702 18.472 23.2995 18.728C23.1288 18.984 23.0435 19.304 23.0435 19.688C23.0435 20.4347 23.2888 20.9573 23.7795 21.256C24.2915 21.5333 24.9848 21.672 25.8595 21.672ZM25.4755 7.72C26.8835 7.72 28.0568 7.88 28.9955 8.2C29.9342 8.52 30.6808 8.97867 31.2355 9.576C31.8115 10.1733 32.2168 10.8987 32.4515 11.752C32.6862 12.6053 32.8035 13.5547 32.8035 14.6V24.52C32.1208 24.6693 31.1715 24.84 29.9555 25.032C28.7395 25.2453 27.2675 25.352 25.5395 25.352C24.4515 25.352 23.4595 25.256 22.5635 25.064C21.6888 24.872 20.9315 24.5627 20.2915 24.136C19.6515 23.688 19.1608 23.112 18.8195 22.408C18.4782 21.704 18.3075 20.84 18.3075 19.816C18.3075 18.8347 18.4995 18.0027 18.8835 17.32C19.2888 16.6373 19.8222 16.0933 20.4835 15.688C21.1448 15.2827 21.9022 14.9947 22.7555 14.824C23.6088 14.632 24.4942 14.536 25.4115 14.536C26.0302 14.536 26.5742 14.568 27.0435 14.632C27.5342 14.6747 27.9288 14.7387 28.2275 14.824V14.376C28.2275 13.5653 27.9822 12.9147 27.4915 12.424C27.0008 11.9333 26.1475 11.688 24.9315 11.688C24.1208 11.688 23.3208 11.752 22.5315 11.88C21.7422 11.9867 21.0595 12.1467 20.4835 12.36L19.8755 8.52C20.1528 8.43467 20.4942 8.34933 20.8995 8.264C21.3262 8.15733 21.7848 8.072 22.2755 8.008C22.7662 7.92267 23.2782 7.85867 23.8115 7.816C24.3662 7.752 24.9208 7.72 25.4755 7.72ZM41.883 14.248C42.3523 13.736 42.8323 13.2027 43.323 12.648C43.835 12.0933 44.3257 11.5493 44.795 11.016C45.2643 10.4613 45.7017 9.93867 46.107 9.448C46.5337 8.95733 46.8963 8.53067 47.195 8.168H52.859C51.7283 9.46933 50.619 10.7173 49.531 11.912C48.4643 13.0853 47.291 14.3013 46.011 15.56C46.651 16.136 47.3123 16.8293 47.995 17.64C48.6777 18.4293 49.339 19.2507 49.979 20.104C50.619 20.9573 51.2057 21.8107 51.739 22.664C52.2723 23.5173 52.7203 24.296 53.083 25H47.611C47.2697 24.4453 46.875 23.8373 46.427 23.176C46.0003 22.4933 45.5417 21.8213 45.051 21.16C44.5603 20.4773 44.0377 19.8267 43.483 19.208C42.9497 18.5893 42.4163 18.0667 41.883 17.64V25H37.115V0.935999L41.883 0.167999V14.248ZM69.7018 24.424C68.8911 24.6587 67.8458 24.872 66.5658 25.064C65.2858 25.2773 63.9418 25.384 62.5338 25.384C61.1044 25.384 59.9098 25.192 58.9498 24.808C58.0111 24.424 57.2644 23.8907 56.7098 23.208C56.1551 22.504 55.7604 21.672 55.5258 20.712C55.2911 19.752 55.1738 18.696 55.1738 17.544V8.168H59.9418V16.968C59.9418 18.504 60.1444 19.6133 60.5498 20.296C60.9551 20.9787 61.7124 21.32 62.8218 21.32C63.1631 21.32 63.5258 21.3093 63.9098 21.288C64.2938 21.2453 64.6351 21.2027 64.9338 21.16V8.168H69.7018V24.424Z" fill="black"/>
</svg>
