<svg width="329" height="22" viewBox="0 0 329 22" fill="none" xmlns="http://www.w3.org/2000/svg">
<path fill-rule="evenodd" clip-rule="evenodd" d="M13.7689 1.51736C11.9695 1.98618 10.0811 1.98142 8.2841 1.50354C7.21416 1.19682 6.17771 0.78156 5.19061 0.264086L1.69608 4.39296L2.16793 4.81632L3.8956 2.73163C4.52595 3.09779 5.19763 3.38607 5.89617 3.59029C6.72706 3.79414 7.57976 3.89333 8.43479 3.88561C9.54629 3.89154 10.6541 3.75607 11.732 3.4824C12.9824 3.13116 14.1937 2.65128 15.3469 2.05029C13.6745 3.64629 12.3468 4.97313 11.3639 6.03078C10.6138 6.84158 9.93507 7.71681 9.33542 8.64654H4.24173L3.72402 9.71875H8.63855L7.6525 11.2365H3.00034L2.49686 12.2669H6.98373C5.30734 14.8479 4.12666 16.625 3.44168 17.5981C2.62341 18.7368 1.74158 19.8274 0.800446 20.8648L1.1658 21.3591C2.3002 20.8513 3.47603 20.4437 4.68011 20.1407C5.74194 19.8926 6.82866 19.7693 7.91856 19.7734C8.97205 19.7644 10.0226 19.886 11.0468 20.1353C12.155 20.4345 13.2308 20.845 14.2579 21.3608L17.3934 17.4968L16.979 17.0913L15.4814 18.8949C14.7596 18.5141 13.9997 18.2121 13.2145 17.9941C12.4869 17.8105 11.7393 17.7206 10.9893 17.7266C8.55485 17.7266 5.97358 18.3195 3.24551 19.5055C5.74542 17.1304 7.34687 15.5577 8.04984 14.7877C8.75914 14.0096 9.39435 13.1659 9.94706 12.2677H14.8908L15.353 11.2373H10.5827C10.9226 10.7271 11.2349 10.2211 11.5198 9.7195H16.1052L16.6362 8.64728H12.1812C13.7015 6.18403 14.7452 4.50801 15.3124 3.61923C15.8795 2.73045 16.5732 1.73054 17.3934 0.619498L16.9725 0.264826C15.9457 0.782375 14.8731 1.20172 13.7689 1.51736ZM52.1181 1.2747C51.6031 1.66431 51.124 2.10007 50.6866 2.57669C48.6451 1.03582 46.5256 0.265269 44.3281 0.26502C42.8763 0.269212 41.4446 0.607564 40.1418 1.25435C38.7859 1.91328 37.7699 2.8137 37.0936 3.95561C36.4233 5.07702 36.0725 6.36346 36.0799 7.67325C36.0649 8.76738 36.3437 9.8452 36.8866 10.7923C37.4242 11.7206 38.3596 12.6907 39.6925 13.7024L37.7212 16.4188C37.6383 16.5394 37.5464 16.6693 37.4453 16.8085C37.0058 17.3659 36.6288 17.9708 36.3212 18.6119C36.0895 19.0775 35.9602 19.5881 35.9419 20.1088C35.9264 20.4596 36.0338 20.8048 36.2453 21.0836C36.3032 21.1618 36.3768 21.2268 36.4613 21.2744C36.5458 21.3219 36.6392 21.3509 36.7356 21.3594C36.8319 21.368 36.929 21.3559 37.0204 21.324C37.1118 21.292 37.1955 21.241 37.266 21.1741C37.3278 21.1165 37.3769 21.0465 37.4102 20.9685C37.4435 20.8905 37.4602 20.8063 37.4592 20.7214C37.4592 20.6011 37.3442 20.346 37.1144 19.9561C36.9562 19.7209 36.8655 19.4462 36.8522 19.1622C36.8464 19.0662 36.862 18.9701 36.8978 18.881C36.9336 18.7918 36.9887 18.7119 37.0591 18.647C37.2445 18.4794 37.4864 18.3898 37.7352 18.3965C38.8122 18.3965 40.8374 19.3852 43.8107 21.3625L49.1418 17.2825C49.1788 18.5269 49.3514 19.432 49.6595 19.9977C50.0177 20.6094 50.5619 21.0881 51.2112 21.3625L52.0663 20.6541L54.6319 18.4452L54.2252 17.9226C53.6659 18.461 53.2534 18.7303 52.9877 18.7303C52.8691 18.7238 52.7544 18.6856 52.6553 18.6195C52.5563 18.5534 52.4765 18.4619 52.4241 18.3543C52.2041 18.0015 52.0849 17.2543 52.0665 16.1126L51.8321 5.71102C51.8228 5.29326 51.8183 4.95906 51.8184 4.70843C51.7958 4.11488 51.8608 3.52125 52.0114 2.94704C52.1468 2.54171 52.3762 2.17488 52.6804 1.87707C53.116 1.47869 53.6119 1.15326 54.1494 0.913124L53.8803 0.265578C53.2619 0.542818 52.6717 0.880293 52.1181 1.27321V1.2747ZM46.0905 4.88651C45.3939 4.59729 44.6512 4.43748 43.8984 4.4148C43.2728 4.41499 42.6578 4.57804 42.1128 4.88819C41.5796 5.17279 41.1356 5.60197 40.8308 6.12746C40.541 6.63769 40.3962 7.03691 40.3964 7.32512C40.3941 7.40242 40.4221 7.47753 40.4745 7.534C40.4944 7.55866 40.5193 7.57882 40.5474 7.59319C40.5756 7.60756 40.6064 7.61583 40.6379 7.61745C40.6985 7.60642 40.7555 7.58027 40.8036 7.54137C40.8516 7.50248 40.8893 7.45208 40.9132 7.39474C41.3995 6.67073 42.0236 6.30866 42.7855 6.30854C43.4424 6.33971 44.0812 6.53577 44.6441 6.87898L40.0322 13.2342C37.9945 11.7689 36.9757 10.0854 36.9759 8.18379C36.9872 7.24582 37.2648 6.33082 37.7757 5.54731C38.309 4.68939 39.1136 3.98908 40.1895 3.44637C41.2596 2.90498 42.441 2.62607 43.6378 2.63232C44.8425 2.64586 46.0275 2.94139 47.0998 3.49565L46.0905 4.88651ZM49.0446 12.1432H41.6323L47.6547 3.84584C47.8929 4.00517 48.1226 4.17708 48.3429 4.36085C48.4346 4.44423 48.6133 4.63451 48.8791 4.93169L49.0446 12.1432ZM49.1 14.1762L49.1555 16.5229L45.9104 18.9545L38.9029 15.9047L40.1574 14.1762H49.1008H49.1ZM83.481 4.47734C83.1446 5.64326 82.9619 6.84887 82.9376 8.06301L82.9931 12.3937C82.9931 13.4984 82.8231 14.4104 82.483 15.1298C82.154 15.8359 81.6536 16.4466 81.0284 16.9052C80.3987 17.3697 79.3486 17.9172 77.8783 18.5479C77.0695 18.9008 76.3114 19.2675 75.6041 19.6479L79.6569 16.2237C79.7393 16.149 79.9529 15.9147 80.2977 15.5207C80.6412 15.1284 80.9099 14.6753 81.0903 14.1844C81.2789 13.6603 81.3723 13.1063 81.366 12.5488L81.3106 8.58176C81.3193 7.1727 81.512 5.77095 81.8837 4.41275C82.233 3.05074 82.809 1.75858 83.5872 0.591493L83.0837 0.264268C82.2948 0.711573 81.4105 0.959975 80.5061 0.988353C79.8671 0.960599 79.2355 0.838655 78.6314 0.626402C78.0138 0.411232 77.3682 0.289207 76.7153 0.264268C76.0161 0.275831 75.3347 0.488773 74.7512 0.878033C74.0796 1.31241 73.5236 1.90618 73.1317 2.60749C72.8558 3.07229 72.6216 3.77422 72.4291 4.71328L72.8913 4.81781C73.3139 4.00096 73.757 3.41843 74.2207 3.07024C74.7155 2.71213 75.3133 2.52845 75.9218 2.54757C76.26 2.56441 76.5963 2.60867 76.9274 2.67992C77.304 2.75804 77.6867 2.80233 78.071 2.81227C78.6403 2.80885 79.2053 2.71194 79.7437 2.52536C80.5464 2.21927 81.3189 1.83806 82.0513 1.38669C80.4072 3.12008 79.4106 4.3158 79.0617 4.97386C78.7018 5.67802 78.5219 6.4618 78.5382 7.254C78.5382 7.54172 78.5474 7.88039 78.5658 8.27003C78.2128 8.04072 77.8358 7.8516 77.4416 7.70611C77.1257 7.58792 76.7923 7.52437 76.4554 7.51813C75.9196 7.50764 75.394 7.6665 74.952 7.97248C74.4948 8.30875 74.1523 8.78017 73.972 9.32152L74.4343 9.5095C74.8932 9.09174 75.3522 8.88286 75.8114 8.88286C76.1986 8.87932 76.5821 8.95949 76.9361 9.11799C77.2901 9.2765 77.6064 9.50966 77.8637 9.80181C78.433 10.4146 78.7176 11.2176 78.7176 12.2109C78.7176 12.4336 78.7084 12.6935 78.69 12.9906C78.3542 12.7441 77.9879 12.5428 77.6004 12.392C77.2789 12.2674 76.9379 12.2013 76.5935 12.1969C76.1116 12.192 75.6423 12.3523 75.2622 12.6515C74.8562 12.9772 74.5639 13.4254 74.4278 13.9307L74.9174 14.1605C75.2291 13.7427 75.5866 13.5338 75.9898 13.5338C76.203 13.5319 76.4143 13.5741 76.6106 13.6578C76.807 13.7415 76.9843 13.865 77.1315 14.0207C77.2902 14.1808 77.4148 14.372 77.4977 14.5825C77.5805 14.793 77.6198 15.0184 77.6132 15.2448C77.5905 15.8304 77.3881 16.3943 77.0339 16.8586C76.2524 17.9808 74.9605 19.2653 73.1581 20.7121L73.6065 21.3597C74.5892 20.9156 75.6085 20.5592 76.6527 20.2944C78.4441 19.8743 80.3073 19.8768 82.0977 20.3014C83.1244 20.5624 84.1256 20.9166 85.0891 21.3597L88.6515 17.2657C89.5813 18.9457 90.1842 19.9645 90.4603 20.3222C90.7838 20.7236 91.1655 21.0733 91.5924 21.3597L95.02 18.0107L94.5855 17.488L93.8698 18.1712C93.5116 18.5333 93.2453 18.7143 93.071 18.7142C92.9658 18.7045 92.8637 18.6728 92.7712 18.6213C92.6787 18.5697 92.5978 18.4993 92.5336 18.4146C92.3499 18.2149 91.8402 17.3998 91.0045 15.9693C90.1687 14.5388 89.4362 13.4867 88.807 12.8131C88.1664 12.1307 87.4195 11.5587 86.596 11.1199L92.0861 7.17597L88.8759 3.39672L83.5864 7.62994C83.661 6.42627 83.8766 5.23576 84.2286 4.08328C84.6518 2.86293 85.2041 1.69223 85.876 0.591493L85.345 0.264268C84.5335 1.57418 83.9063 2.9916 83.4814 4.47584L83.481 4.47734ZM89.3792 8.31371L83.5863 12.4355L83.6138 11.082L83.5863 8.86363V8.44269L87.0841 5.60909L89.3792 8.31371ZM86.4155 18.9248C85.7072 18.5411 84.957 18.242 84.1801 18.0334C83.5086 17.8663 82.4646 17.7456 81.0482 17.6713C81.9494 17.0308 82.5908 16.3624 82.9724 15.6661C83.354 14.9699 83.5586 14.0973 83.5863 13.0483C84.4452 13.0826 85.2755 13.3699 85.9747 13.8747C86.702 14.3899 87.4935 15.3392 88.3492 16.7227L86.4155 18.9248ZM120.821 4.55406C120.825 3.96331 120.717 3.37721 120.504 2.8272C120.198 2.17601 119.705 1.63265 119.09 1.2676C118.46 0.887175 117.671 0.696902 116.724 0.696778C115.994 0.674242 115.268 0.809544 114.593 1.09363C114.019 1.3582 113.373 1.86182 112.655 2.60451L113.112 2.93865C113.45 2.68612 113.816 2.47571 114.204 2.312C114.519 2.19717 114.851 2.14059 115.186 2.14494C115.761 2.1403 116.323 2.32075 116.79 2.66014C117.244 2.97011 117.585 3.42287 117.758 3.94813C117.924 4.46333 118.007 5.3197 118.007 6.51723L115.407 8.2719C114.551 8.88767 113.628 9.40167 112.655 9.80368V10.3747C113.288 10.5619 113.899 10.8138 114.481 11.1266C115.186 11.5516 115.833 12.069 116.404 12.6653C116.933 13.1773 117.36 13.7871 117.662 14.4616C117.915 15.1685 118.032 15.9175 118.008 16.6687V17.2954C116.809 17.4408 115.651 17.8242 114.6 18.4234C113.674 18.9804 112.755 19.8484 111.842 21.0274L112.222 21.3615C112.825 20.8637 113.499 20.4601 114.221 20.1641C115.353 19.7552 116.547 19.5479 117.749 19.5512C118.73 19.5522 119.707 19.6881 120.651 19.9552C121.826 20.3121 122.964 20.7831 124.049 21.3615L127.635 18.3885L127.193 17.9011L125.763 19.1762C124.916 18.7015 124.029 18.3046 123.111 17.9901V12.1984L124.036 11.5765C124.785 11.8028 125.5 12.1311 126.162 12.5523C126.755 12.9826 127.262 13.5239 127.653 14.1468C128.16 14.9349 128.551 15.7933 128.813 16.695C129.374 18.5705 129.76 19.6706 129.972 19.9953C130.346 20.5553 130.842 21.022 131.422 21.36L134.766 18.4915L134.29 17.9901L132.914 19.1682C132.613 18.9249 132.351 18.6351 132.139 18.3095C131.871 17.7513 131.672 17.162 131.545 16.5549C131.122 14.9026 130.53 13.5544 129.77 12.5102C128.948 11.4094 127.916 10.4852 126.736 9.79173L131.173 6.77259L126.416 0.666164L120.821 4.55406ZM128.511 7.79851L123.111 11.4329V3.73683L124.565 2.72622L128.511 7.79851ZM122.476 17.7704C121.934 17.6044 121.381 17.4777 120.821 17.3913V5.32685L122.476 4.17736V17.7704ZM118.007 11.6125C117.49 11.1192 116.947 10.6544 116.38 10.2199C115.923 9.89859 115.438 9.61897 114.932 9.38442L118.008 7.29563V11.6125H118.007ZM155.422 4.37149C154.37 5.33022 153.514 6.48665 152.9 7.77611C152.3 9.05769 151.994 10.4594 152.005 11.877C151.969 14.1341 152.748 16.3271 154.198 18.0459C156.037 20.2553 158.542 21.36 161.714 21.36C163.611 21.3925 165.478 20.8762 167.094 19.8719C168.381 19.0564 169.558 17.8095 170.624 16.1311L170.287 15.595C169.415 16.5238 168.401 17.3044 167.283 17.9067C166.084 18.5439 164.751 18.8831 163.396 18.896L162.514 18.8542V9.81619H167.756L169.259 7.15656H165.535L170.293 2.30322L169.956 1.87875C169.481 1.95418 169.002 1.99604 168.521 2.004C167.754 2.00103 166.991 1.89328 166.253 1.68368C165.277 1.388 164.328 1.00584 163.418 0.541659L157.383 5.73603V12.1417C157.383 13.395 157.328 14.1727 157.218 14.475C157.107 14.7773 156.785 15.1506 156.252 15.595C154.983 13.887 154.349 12.0953 154.349 10.2199C154.344 8.78035 154.718 7.36526 155.432 6.11907C156.154 4.84264 157.278 3.71238 158.804 2.72827L158.522 2.29669C157.405 2.8531 156.364 3.55027 155.422 4.37149ZM161.881 18.7978C160.876 18.6816 159.899 18.3899 158.993 17.9358C158.103 17.4363 157.3 16.7931 156.615 16.0318C157.956 14.909 158.93 13.9855 159.537 13.2615C159.782 13.0042 159.968 12.6953 160.08 12.3569C160.178 11.8669 160.218 11.3668 160.199 10.8673V4.40865L161.881 2.97859V18.7992L161.881 18.7978ZM162.515 9.29651V3.0904C163.246 3.46752 164.004 3.78747 164.784 4.04745C165.562 4.27582 166.357 4.44277 167.161 4.54678L162.515 9.29651ZM202.831 0.26371L196.146 4.77544C195.622 3.17882 194.949 2.02771 194.127 1.32211C193.304 0.616507 192.47 0.26371 191.625 0.26371C191.204 0.248074 190.785 0.337588 190.406 0.524319C190.027 0.711049 189.699 0.98923 189.452 1.33424C188.924 2.04793 188.627 3.04878 188.563 4.33678L189.066 4.48312C189.195 3.62906 189.388 3.05811 189.643 2.77027C189.749 2.63781 189.883 2.53052 190.036 2.45593C190.188 2.38134 190.354 2.34126 190.523 2.33851C191.218 2.33851 191.831 2.78875 192.363 3.68923C193.426 5.47177 193.985 8.03863 194.04 11.3898C193.72 11.063 193.351 10.7903 192.945 10.5823C192.615 10.4137 192.25 10.3232 191.88 10.3176C190.835 10.3176 190.051 10.8583 189.528 11.9399L189.935 12.2533C190.257 11.9608 190.669 11.7888 191.102 11.7659C191.741 11.7659 192.322 12.0564 192.843 12.6375C193.376 13.2505 193.656 14.0466 193.626 14.8618C193.626 16.4236 192.895 18.4875 191.433 21.0535L191.839 21.3602C192.548 20.913 193.304 20.5473 194.093 20.2701C194.735 20.0734 195.403 19.9762 196.074 19.9817C196.709 19.9651 197.34 20.09 197.923 20.3474C198.396 20.5964 198.813 20.9411 199.148 21.3602C200.03 20.901 200.945 20.5122 201.887 20.1975C202.501 20.0063 203.14 19.9057 203.784 19.8988C204.269 19.9093 204.747 20.0257 205.183 20.24C205.722 20.5048 206.196 20.8874 206.57 21.36C208.824 19.299 210.54 17.5352 211.719 16.0686C212.859 14.6676 213.772 13.0931 214.424 11.4036C214.82 10.3447 215.016 9.22098 215.005 8.08953C214.993 6.84152 214.76 5.60577 214.315 4.44112C213.857 3.19667 213.096 1.80414 212.032 0.263516L205.296 4.77526C204.553 2.90013 203.731 1.39621 202.831 0.263516V0.26371ZM200.809 2.36296C201.399 3.29261 201.906 4.27424 202.321 5.29587C202.666 6.25115 202.918 7.23812 203.074 8.24278C202.535 8.56362 201.963 8.82283 201.367 9.01558C200.883 9.15274 200.383 9.22072 199.881 9.21755C199.385 9.22165 198.891 9.15364 198.414 9.01558C197.834 8.82219 197.278 8.56292 196.756 8.24278C196.705 7.29252 196.557 6.35012 196.314 5.43064L200.809 2.36296ZM209.931 2.39843C210.573 3.47932 211.108 4.62123 211.529 5.80771C211.79 6.59651 211.956 7.41402 212.025 8.24278C211.515 8.52735 210.978 8.75835 210.421 8.93213C209.512 9.17799 208.555 9.18275 207.642 8.94594C207.068 8.76728 206.513 8.53175 205.984 8.24278C205.919 7.37944 205.858 6.78547 205.797 6.46067C205.721 6.07627 205.614 5.69894 205.475 5.33264L209.931 2.39843ZM203.101 9.7307C203.088 11.1472 202.855 12.553 202.411 13.8967C201.841 13.5239 201.23 13.2201 200.59 12.9916C199.622 12.6855 198.589 12.659 197.607 12.915C197.089 13.0487 196.581 13.2235 196.089 13.4377C196.531 12.1268 196.77 10.755 196.798 9.37061V9.0096C197.29 9.28076 197.81 9.49785 198.349 9.65715C198.822 9.79703 199.311 9.86965 199.804 9.87293C200.3 9.87674 200.794 9.81117 201.272 9.67806C201.894 9.47866 202.497 9.22248 203.073 8.91272C203.091 9.27361 203.101 9.54664 203.101 9.73181V9.7307ZM212.039 9.38499C212.039 10.6569 211.716 12.1748 211.072 13.9385C210.519 13.5526 209.916 13.2457 209.28 13.0265C208.673 12.8387 208.04 12.7471 207.405 12.7549C207.032 12.7574 206.66 12.7949 206.294 12.8669C205.879 12.9483 205.471 13.0648 205.075 13.215C205.377 12.5268 205.621 11.814 205.804 11.0844C205.94 10.401 206.013 9.70651 206.024 9.0096C206.515 9.24356 207.028 9.42892 207.555 9.56307C208.024 9.6827 208.506 9.74469 208.99 9.74768C209.447 9.75113 209.902 9.70304 210.349 9.60432C210.923 9.45418 211.483 9.25523 212.024 9.0096C212.033 9.17666 212.039 9.30211 212.039 9.38555V9.38499ZM208.568 18.21C207.882 17.9204 207.148 17.7611 206.405 17.74C205.497 17.7517 204.597 17.9007 203.733 18.182C202.494 18.606 201.295 19.142 200.152 19.7836C201.151 18.7704 202.098 17.7046 202.986 16.5907C203.613 15.7822 204.173 14.9231 204.661 14.0222C205.126 13.8283 205.606 13.6745 206.096 13.5626C206.53 13.4634 206.973 13.412 207.418 13.4093C207.997 13.4003 208.573 13.4922 209.121 13.6809C209.72 13.9177 210.284 14.2388 210.794 14.6348C210.173 15.899 209.427 17.0968 208.568 18.21ZM200.398 18.0743C199.917 17.9968 199.432 17.9549 198.946 17.9489C198.028 17.9557 197.116 18.0985 196.239 18.373C195.035 18.7751 193.87 19.2893 192.759 19.9089C193.394 19.0217 193.975 18.0969 194.499 17.1395C194.983 16.2243 195.413 15.281 195.786 14.3145C196.345 14.0397 196.926 13.816 197.524 13.646C198.018 13.5046 198.529 13.4297 199.042 13.4233C199.536 13.4178 200.026 13.5 200.492 13.666C201.093 13.916 201.662 14.2362 202.189 14.6199C201.702 15.8259 201.102 16.9822 200.398 18.0732V18.0743ZM237.188 4.68529C236.428 5.80417 236.049 6.79518 236.049 7.65833L236.062 7.82538C235.217 8.15056 234.611 8.5173 234.243 8.92561C233.682 9.5177 233.37 10.3064 233.374 11.1256C233.374 11.6476 233.507 12.1607 233.76 12.6156C234.038 13.1108 234.44 13.5237 234.925 13.8133C235.539 14.1726 236.216 14.4112 236.918 14.5165C237.554 14.6434 238.2 14.711 238.848 14.7184L240.868 14.5598L239.743 16.556C239.011 16.4221 238.269 16.3478 237.525 16.3337C236.008 16.3337 234.864 16.6377 234.091 17.2457C233.318 17.8537 232.932 18.5245 232.932 19.258C232.932 19.9452 233.251 20.5509 233.89 21.0752C234.528 21.5995 235.441 21.8617 236.628 21.862C238.292 21.862 240.419 21.2646 243.009 20.07C244.458 20.5217 245.732 20.9521 246.829 21.3611C249.942 19.7924 252.108 18.3001 253.326 16.8843C254.544 15.4685 255.153 14.0273 255.153 12.5606C255.159 11.7891 254.957 11.0305 254.566 10.3672C254.155 9.68296 253.605 9.09446 252.952 8.64056C252.209 8.12739 251.376 7.76121 250.497 7.56144C249.68 7.34522 248.838 7.24217 247.993 7.25512L245.605 7.41453L248.611 2.26254C248.84 1.87688 248.953 1.61816 248.953 1.48637C248.953 1.44537 248.945 1.40475 248.93 1.36687C248.914 1.32899 248.891 1.29462 248.862 1.26573C248.833 1.23404 248.798 1.20902 248.758 1.19234C248.719 1.17566 248.676 1.16772 248.633 1.16904C248.588 1.1688 248.543 1.17795 248.501 1.19593C248.46 1.21391 248.422 1.24034 248.391 1.27357C248.254 1.44345 248.135 1.62754 248.036 1.82275L247.574 2.64296L241.352 0.5424C239.337 2.18544 237.949 3.56622 237.188 4.68473V4.68529ZM244.861 7.46382C242.702 7.64924 241.314 7.74195 240.697 7.74195C239.761 7.74195 239.059 7.53307 238.593 7.11531C238.368 6.9167 238.188 6.67011 238.068 6.39324C237.948 6.11637 237.89 5.81607 237.898 5.51389C237.9 5.18365 237.974 4.85786 238.114 4.5595C238.254 4.26115 238.458 3.99752 238.71 3.78723C239.252 3.29517 239.954 3.04915 240.816 3.04915C241.541 3.06772 242.259 3.19176 242.949 3.41745C244.109 3.81265 245.237 4.29819 246.322 4.86971L244.861 7.46382ZM242.339 11.9438C241.36 12.0705 240.374 12.1412 239.387 12.1557C237.741 12.1557 236.578 11.9143 235.898 11.4316C235.661 11.2799 235.465 11.0701 235.33 10.8217C235.195 10.5734 235.124 10.2946 235.125 10.0113C235.125 9.38007 235.456 8.85118 236.118 8.42459C236.337 9.01145 236.752 9.50347 237.29 9.81713C237.815 10.1143 238.702 10.2628 239.952 10.2627C241.117 10.2595 242.28 10.1729 243.432 10.0036L242.339 11.9438ZM244.173 9.94778C245.311 9.7949 246.457 9.70914 247.605 9.69093C248.614 9.67089 249.614 9.87294 250.538 10.283C251.309 10.6114 251.966 11.1643 252.425 11.8712C252.817 12.474 253.031 13.1772 253.041 13.8982C253.043 14.943 252.698 15.9584 252.061 16.7817C251.407 17.6546 250.477 18.4673 249.271 19.2195L246.466 18.4729C248.451 17.5567 249.744 16.7919 250.345 16.1784C250.947 15.5648 251.248 14.9327 251.249 14.2818C251.248 13.9125 251.165 13.5482 251.005 13.2162C250.844 12.8841 250.612 12.5929 250.325 12.3642C249.709 11.8291 248.817 11.5615 247.649 11.5615C246.795 11.5615 245.271 11.671 243.077 11.8899L244.173 9.94778ZM241.602 14.5025C242.23 14.5025 243.547 14.3947 245.553 14.1793C246.156 14.1011 246.764 14.058 247.372 14.0502C247.737 14.0371 248.092 14.1671 248.363 14.4129C248.481 14.5119 248.577 14.6353 248.644 14.7749C248.711 14.9145 248.748 15.067 248.751 15.2221C248.753 16.1803 247.641 17.1712 245.416 18.1947C244.014 17.7044 243.04 17.3774 242.493 17.2138C241.945 17.0501 241.239 16.8721 240.372 16.6797L241.602 14.5025ZM236.711 21.2355C235.801 21.2355 235.107 21.0684 234.629 20.7341C234.488 20.6498 234.372 20.5295 234.292 20.3853C234.211 20.2411 234.17 20.0781 234.172 19.9128C234.175 19.7483 234.218 19.587 234.297 19.4436C234.377 19.3001 234.491 19.1791 234.629 19.0915C235.069 18.7573 235.667 18.5903 236.423 18.5903C237.885 18.5874 239.76 18.9725 242.047 19.7456C239.888 20.7394 238.109 21.2362 236.711 21.2361V21.2355ZM283.85 4.47658C283.514 5.64248 283.331 6.84811 283.307 8.06227L283.362 12.3929C283.362 13.4976 283.192 14.4097 282.852 15.1291C282.523 15.8353 282.022 16.4461 281.397 16.9045C280.766 17.3689 279.716 17.9165 278.246 18.5472C277.438 18.9001 276.68 19.2667 275.972 19.6472L280.025 16.223C280.108 16.1483 280.321 15.9144 280.666 15.52C281.009 15.1276 281.278 14.6745 281.458 14.1836C281.647 13.6597 281.74 13.1056 281.733 12.5481L281.678 8.58102C281.687 7.17199 281.88 5.7703 282.251 4.412C282.6 3.05019 283.176 1.75812 283.954 0.590753L283.451 0.263516C282.662 0.710792 281.778 0.959193 280.873 0.987601C280.234 0.959706 279.603 0.837766 278.999 0.62565C278.381 0.410473 277.736 0.288447 277.083 0.263516C276.384 0.274927 275.703 0.487886 275.119 0.877281C274.447 1.31102 273.891 1.90494 273.5 2.60675C273.222 3.07155 272.989 3.7736 272.795 4.71254L273.258 4.81707C273.681 4.00022 274.124 3.41769 274.587 3.0695C275.082 2.71152 275.68 2.52786 276.288 2.54683C276.626 2.56355 276.963 2.60781 277.294 2.67918C277.671 2.75725 278.054 2.80153 278.438 2.81152C279.008 2.80848 279.573 2.71176 280.112 2.52517C280.914 2.21879 281.687 1.8376 282.419 1.38651C280.775 3.1199 279.779 4.31562 279.429 4.97368C279.069 5.67779 278.89 6.46162 278.906 7.25382C278.906 7.54154 278.915 7.88021 278.934 8.26985C278.581 8.04072 278.204 7.8516 277.81 7.70593C277.494 7.58784 277.161 7.52429 276.824 7.51795C276.288 7.50708 275.763 7.66598 275.321 7.9723C274.863 8.30829 274.521 8.7798 274.341 9.32134L274.803 9.5093C275.262 9.09154 275.721 8.88266 276.181 8.88266C276.568 8.87926 276.951 8.95951 277.305 9.11801C277.658 9.27652 277.974 9.50961 278.231 9.80163C278.801 10.4144 279.085 11.2174 279.085 12.2108C279.085 12.4334 279.076 12.6933 279.058 12.9905C278.722 12.7439 278.356 12.5426 277.969 12.3918C277.647 12.2672 277.306 12.2011 276.961 12.1967C276.479 12.1922 276.01 12.3524 275.63 12.6513C275.224 12.9776 274.932 13.4256 274.796 13.9305L275.286 14.1603C275.596 13.7425 275.955 13.5337 276.358 13.5337C276.572 13.5317 276.783 13.574 276.979 13.6577C277.176 13.7414 277.353 13.8649 277.501 14.0205C277.659 14.1808 277.784 14.3721 277.866 14.5826C277.949 14.793 277.988 15.0183 277.982 15.2446C277.959 15.8302 277.757 16.3941 277.403 16.8584C276.621 17.9806 275.329 19.2651 273.528 20.7119L273.975 21.3595C274.958 20.9154 275.978 20.559 277.022 20.2942C278.814 19.8741 280.677 19.8766 282.467 20.3013C283.494 20.5624 284.495 20.9166 285.459 21.3595L289.02 17.2655C289.95 18.9455 290.553 19.9643 290.83 20.322C291.153 20.7236 291.535 21.0734 291.962 21.3595L295.39 18.0105L294.955 17.4878L294.238 18.1701C293.879 18.5322 293.613 18.7132 293.439 18.7131C293.334 18.7031 293.232 18.6714 293.139 18.6199C293.046 18.5683 292.965 18.4981 292.901 18.4135C292.718 18.2138 292.208 17.3986 291.372 15.9682C290.535 14.5377 289.803 13.4856 289.175 12.812C288.535 12.1295 287.788 11.5575 286.964 11.1187L292.453 7.17485L289.244 3.39561L283.954 7.62883C284.029 6.42509 284.245 5.23456 284.597 4.08216C285.02 2.86175 285.573 1.69103 286.245 0.590377L285.714 0.263152C284.901 1.57268 284.274 2.99067 283.85 4.47584V4.47658ZM289.748 8.31296L283.954 12.4347L283.982 11.0812L283.954 8.86289V8.44269L287.452 5.60835L289.748 8.31296ZM286.785 18.924C286.076 18.5405 285.326 18.2414 284.549 18.0327C283.876 17.8656 282.832 17.7449 281.417 17.6706C282.317 17.03 282.958 16.3617 283.34 15.6654C283.721 14.9691 283.926 14.0965 283.954 13.0476C284.813 13.0825 285.643 13.3705 286.343 13.876C287.069 14.3912 287.861 15.3405 288.717 16.724L286.785 18.924ZM325.722 1.1276C325.004 1.61714 324.431 2.29303 324.061 3.08406C323.69 3.87789 323.504 4.94319 323.503 6.27997C323.503 7.70959 323.751 9.86335 324.248 12.7413C324.662 15.1829 324.869 16.8399 324.869 17.7124C324.883 18.0342 324.833 18.3556 324.723 18.6579C324.613 18.9602 324.445 19.2376 324.228 19.4739C324.029 19.6913 323.787 19.8638 323.517 19.9802C323.248 20.0966 322.957 20.1542 322.664 20.1493C322.212 20.1443 321.769 20.025 321.375 19.8025C320.948 19.5711 320.196 18.9835 319.121 18.0396C320.177 17.817 320.939 17.492 321.408 17.0648C322.042 16.4799 322.359 15.6586 322.359 14.6008C322.359 14.0349 322.225 12.8513 321.959 11.0501C321.737 9.62056 321.618 8.77577 321.6 8.51568C321.545 7.94025 321.517 7.2672 321.517 6.49651C321.517 5.02993 321.703 3.89269 322.076 3.0848C322.448 2.27691 323.117 1.47393 324.084 0.675871L323.745 0.265202C323.318 0.479966 322.869 0.648044 322.407 0.766584C321.985 0.855459 321.554 0.897464 321.123 0.891841C320.347 0.873689 319.574 0.775747 318.818 0.599525C318.406 0.497502 317.984 0.441164 317.56 0.431521C316.357 0.431521 315.395 0.840819 314.676 1.65941C314.171 2.24542 313.84 3.05431 313.683 4.08608L314.214 4.19043C314.306 3.56865 314.521 3.11355 314.861 2.82571C315.201 2.53787 315.693 2.39413 316.336 2.39413C316.751 2.41048 317.164 2.46168 317.57 2.5472C317.98 2.63362 318.397 2.6849 318.816 2.70046C319.148 2.70311 319.479 2.6538 319.796 2.5543C320.099 2.45686 320.797 2.1435 321.889 1.61424C320.768 2.86752 320.008 3.97925 319.607 4.94941C319.207 5.91958 318.993 7.16123 318.966 8.67435C318.781 8.6652 318.625 8.66035 318.496 8.66035C317.688 8.64201 316.893 8.86158 316.207 9.29222C315.498 9.77475 314.912 10.4194 314.497 11.1738L314.904 11.515C315.31 11.1939 315.752 10.9206 316.22 10.7004C316.522 10.5705 316.847 10.5019 317.176 10.4985C317.53 10.4903 317.882 10.5698 318.199 10.73C318.516 10.8902 318.789 11.1262 318.995 11.4176C319.628 12.2625 319.944 13.4971 319.946 15.1216C319.946 15.9293 319.761 16.5188 319.393 16.8901C319.025 17.2709 318.335 17.4891 317.324 17.5446C316.312 17.6001 315.543 17.753 315.014 18.0034C314.416 18.3138 313.902 18.767 313.517 19.3237C313.101 19.9375 312.806 20.6266 312.648 21.3531L313.18 21.5689C313.332 21.0524 313.641 20.597 314.062 20.2669C314.485 19.9655 314.993 19.8114 315.51 19.8282C316.079 19.8282 317.035 20.0371 318.376 20.4549C320.068 20.9934 321.276 21.2626 322.002 21.2626C322.692 21.2626 323.459 21.0352 324.304 20.5805C325.194 20.0813 325.918 19.328 326.386 18.4152C326.929 17.427 327.201 16.195 327.201 14.7192C327.202 14.154 327.169 13.5892 327.103 13.028C327.038 12.4852 326.832 11.1882 326.484 9.13728C326.051 6.59451 325.835 4.82193 325.835 3.81953C325.835 3.01238 326.018 2.36975 326.386 1.89163C326.753 1.41352 327.42 1.03072 328.386 0.743251L328.146 0.262776C327.079 0.457905 326.271 0.745682 325.722 1.12611V1.1276Z" fill="#A5A5A5"/>
</svg>
